<?xml version="1.0" encoding="UTF-8"?>
<!DOCTYPE svg PUBLIC "-//W3C//DTD SVG 1.1//EN" "http://www.w3.org/Graphics/SVG/1.1/DTD/svg11.dtd">
<!-- Creator: CorelDRAW 2017 -->
<svg xmlns="http://www.w3.org/2000/svg" xml:space="preserve" width="278.521mm" height="67.466mm" version="1.1" style="shape-rendering:geometricPrecision; text-rendering:geometricPrecision; image-rendering:optimizeQuality; fill-rule:evenodd; clip-rule:evenodd"
viewBox="0 0 27852.1 6746.6"
 xmlns:xlink="http://www.w3.org/1999/xlink">
 <defs>
  <style type="text/css">
   <![CDATA[
    .str1 {stroke:#295174;stroke-width:798.67;stroke-linecap:round;stroke-linejoin:round;stroke-miterlimit:22.9256}
    .str0 {stroke:#ED3237;stroke-width:1198.03;stroke-linecap:round;stroke-linejoin:round;stroke-miterlimit:22.9256}
    .str2 {stroke:black;stroke-width:399.35;stroke-linecap:round;stroke-linejoin:round;stroke-miterlimit:22.9256}
    .fil0 {fill:none;fill-rule:nonzero}
    .fil1 {fill:white;fill-rule:nonzero}
   ]]>
  </style>
 </defs>
 <g id="Capa_x0020_1">
  <metadata id="CorelCorpID_0Corel-Layer"/>
  <g>
   <path class="fil0 str0" d="M2960.72 5348.49c-213.38,21.46 -381.53,-100.04 -461.43,-348.02 -80.09,-248.51 -77.34,-622.33 53.36,-1096.78 234.68,-22.7 482.73,-73.66 741.44,-153.43 765.42,-233.87 1505.82,-721.03 1986.89,-1223.87 473.71,-495.14 696.11,-1024.37 410.75,-1410.43 -162.7,-212.37 -528.07,-317.33 -920.14,-305.67 -552.05,23.95 -1115.38,258.44 -1610.87,638.92 -501.99,385.48 -946.79,924.94 -1272.14,1511.71 -173.35,-123.36 -272.04,-303.8 -264.06,-527.83 13.33,-344.92 312.06,-653.65 757.45,-661.63 -144.02,-374.4 -288.04,-752.48 -432.06,-1136.11 -434.73,22.75 -785.57,301.17 -1008.13,692.35 -225.46,396.26 -322.71,900.38 -250.68,1346.62 82.64,517.37 389.35,901 837.41,1094.96 -202.68,627.88 -224.61,1192.14 -82.68,1607.45 140.76,412.03 448.06,668.37 901.46,702.16 512.07,36.19 1152.81,-253.71 1720.21,-713.82 558.09,-452.55 1045.48,-1069.81 1226.81,-1771.97 -360.03,31.93 -720.09,65.68 -1077.45,101.29 -21.35,390.98 -164.01,784.72 -381.37,1090.04 -220,309.03 -525.4,532.75 -874.77,564.06zm2389.62 -3885.14c69.35,176.76 -57.43,469.91 -368.05,768.41 -313.42,301.18 -818.78,617.46 -1512.18,823.08 -213.37,65.06 -434.73,104.97 -640.08,118.45 448.06,-934.75 1028.01,-1468.08 1522.83,-1705.05 491.96,-235.58 898.79,-198.85 997.48,-4.89zm885.42 2194.81c205.39,-378.05 626.75,-368.86 512.07,-59.52 -85.32,189.05 -170.68,379.29 -253.36,568.95 -224.03,527.25 -18.76,793.25 410.74,746.98 407.92,-43.9 949.43,-443.75 1458.83,-1297.52 -106.67,-7.36 -213.34,-14.73 -320.05,-22.09 -218.68,308.73 -592.07,725.48 -741.4,696.62 -98.69,-19.65 -85.36,-95.12 226.66,-776.4 194.7,-404.5 104.04,-699.09 -173.35,-749.42 -157.34,-25.18 -482.69,-22.08 -850.74,259.02 106.67,-243.06 213.26,-484.37 320.04,-724.24 106.55,-239.41 213.34,-476.93 320.04,-713.2 -285.4,6.74 -570.76,14.1 -856.13,21.47 2.68,6.74 -233.75,588.59 -506.72,1317.75 -276.41,738.34 -597.42,1636.32 -770.77,2221.22 242.7,-33.12 485.41,-66.29 728.11,-96.98 82.65,-235.07 165.14,-468.36 248.02,-700.91 82.45,-231.43 165.36,-462.16 248.01,-691.73zm2197.63 -974.04c-96.01,213.61 -192.14,428.38 -288.04,643.22 -96.09,215.35 -192.02,433.34 -288.03,651.83 -213.38,505.13 -90.75,838.03 336.04,800.37 247.9,-21.85 544.07,-163.27 856.09,-459.72 5.35,246.12 152,386.49 445.39,366.42 405.32,-27.74 946.79,-397.1 1458.86,-1199.3 -112.01,-6.74 -224.03,-14.72 -336.04,-22.71 -224.03,314.85 -578.75,675.73 -725.44,643.23 -101.32,-20.89 -136,-103.11 224.02,-732.23 144.02,-255.95 288.04,-510.67 434.73,-764.76 -274.7,7.98 -546.74,16.58 -818.74,24.56 -141.38,306.87 -282.73,614.36 -424.07,923.71 -221.36,360.29 -578.75,662.24 -717.42,631.55 -101.36,-19.6 -133.36,-103.1 224.03,-753.68 144.02,-262.7 288.04,-524.16 434.73,-784.41 -272.04,9.22 -544.07,20.26 -816.11,31.92zm4243.19 162.04c13.33,-154.68 -90.67,-255.34 -253.36,-265.76 -184.01,-11.04 -378.7,9.8 -709.44,227.71 37.35,-75.48 74.7,-150.99 114.69,-226.47 -282.69,5.5 -565.38,11.66 -845.44,18.4 -157.35,337.56 -317.95,676.74 -472.04,1017.01 -155.26,342.82 -312.06,687.43 -466.74,1032.97 266.69,-15.97 533.42,-31.31 802.78,-44.79 146.69,-351.08 296.02,-702.16 445.39,-1052 245.34,-465.26 669.41,-514.35 498.74,-105.58 -160.03,376.84 -320.05,754.93 -480.07,1134.87 256.04,-10.46 512.07,-20.26 770.74,-30.11 138.71,-368.86 277.38,-734.66 416.05,-1099.84 181.37,-431.47 589.41,-430.27 474.76,-150.99 -88.03,166.95 -176.03,333.87 -264.06,500.83 -224.03,459.1 -24.02,729.43 408.08,719.94 405.28,-8.88 941.44,-345.54 1453.51,-1108.45 -117.36,5.5 -234.72,11.05 -349.41,15.35 -144.02,221.55 -560.03,591.07 -706.73,554.22 -101.36,-23.33 -48,-160.18 232.01,-640.16 277.39,-469.53 48.01,-782.55 -285.36,-783.79 -181.37,-3.07 -512.07,47.27 -784.1,286.64zm3165.74 -286.02c-210.7,-22.71 -386.73,31.92 -613.43,188.42 106.71,-207.45 216.05,-415.51 322.72,-622.96 106.66,-207.45 216.04,-414.89 325.39,-622.96 -285.37,-0.62 -570.77,-1.24 -853.46,-1.24 2.67,6.12 -221.63,515.48 -498.74,1144.05 -277.58,629.63 -608.08,1379.75 -821.41,1867.09 210.7,-3.06 421.36,-4.92 632.06,-6.16 24.02,-63.81 53.35,-123.36 85.36,-192.1 106.66,114.19 288.03,176.76 493.39,189.66 730.75,41.11 1290.82,-418.57 1440.18,-1027.42 101.36,-418.61 -18.67,-861.75 -512.06,-916.38zm-205.36 1005.96c-181.37,328.99 -669.41,526.63 -904.13,263.93 85.35,-185.98 170.71,-354.75 264.05,-510.67 170.68,-291.52 368.05,-337.55 509.39,-332.63 274.71,14.72 280.02,319.15 130.69,579.37zm1373.51 -998.6c-96.01,195.82 -192.03,392.22 -288.04,587.39 -96.01,195.16 -192.02,389.74 -288.04,584.29 -213.37,448.05 -90.62,769.03 336.05,779.49 248.01,6.08 544.07,-96.98 856.09,-347.4 5.35,235.69 152.16,385.14 445.39,397.73 405.47,17.43 946.79,-289.09 1458.86,-1048.31 -112.02,-15.97 -224.03,-32.51 -336.05,-49.71 -224.02,295.82 -578.74,620.51 -725.44,575.1 -101.32,-30.06 -133.32,-112.94 224.03,-702.77 144.02,-243.68 288.04,-486.73 434.73,-731.6 -272.03,-7.99 -544.07,-14.11 -816.1,-20.89 -144.02,290.95 -285.37,580.03 -426.71,869.11 -221.36,329.58 -578.75,584.91 -717.42,541.94 -101.36,-27.62 -133.37,-109.22 224.03,-695.37 144.01,-241.23 288.03,-483.05 434.73,-725.48 -272.04,-4.92 -544.07,-9.84 -816.11,-13.52zm3888.47 1003.52c-90.67,-343.1 416.05,-765.97 608.08,-875.85 -128.02,-141.78 -253.36,-282.93 -378.71,-424.12 -157.34,94.54 -288.03,228.95 -386.72,373.16 -66.68,-20.22 -144.02,-32.5 -240.03,-35.56 -320.04,-6.78 -674.65,96.59 -957.45,289.7 -282.54,192.92 -501.38,472.58 -554.73,821.22 -85.36,562.82 330.7,897.32 880.12,948.85 717.42,74.9 1306.82,-332.63 1728.22,-1002.28 -104.03,-29.45 -208.03,-57.69 -312.06,-85.32 -352.05,515.59 -965.43,545.66 -1128.13,513.11 -736.09,-134.41 -210.7,-1035.41 381.38,-987.52 -37.35,168.16 -32,324.66 16,452.33 114.69,4.3 229.34,8.6 344.03,12.28zm626.75 1232.43c80.01,-211.75 152.04,-393.43 218.68,-543.8 16.01,-39.87 34.68,-75.48 53.36,-109.22 48,324.69 306.94,708.31 704.09,752.48 656.28,73 1138.82,-550.58 1453.52,-1042.19 -114.69,-11.66 -229.38,-22.08 -344.07,-32.55 -173.35,229.57 -450.69,515.6 -765.43,546.28 -168,17.17 -277.34,-143.63 -282.69,-214.84 360.07,-108.61 765.43,-400.17 848.11,-794.8 66.69,-322.25 -106.62,-611.53 -480.06,-632.8 -175.94,-9.99 -453.4,82.84 -658.76,261.46 109.34,-227.71 219,-456.58 328.07,-687.43 109.57,-231.9 218.68,-465.22 330.69,-700.3 -280.02,-6.74 -560.07,-13.52 -837.45,-20.26 2.67,4.92 -227.71,551.86 -504.05,1218.95 -273.04,659.22 -594.75,1436.82 -768.1,1937.03 234.68,19.64 469.41,39.9 704.09,61.99zm1090.82 -1182.72c-152.04,203.14 -541.4,356.62 -770.78,426.59 240.03,-480.6 445.39,-703.39 642.76,-717.5 141.35,-13.52 253.36,121.51 128.02,290.91zm1272.14 -267.58c-29.33,123.95 -5.34,242.43 53.36,350.46 -386.73,61.99 -642.76,249.17 -680.11,622.95 -48.01,462.17 459.02,743.27 874.81,801.58 717.65,100.62 1330.8,-400.79 1698.85,-1093.1 -120,-14.72 -240.03,-28.87 -357.35,-42.97 -408.08,555.46 -861.48,641.36 -1120.15,600.25 -120.03,-19.64 -277.38,-107.4 -277.38,-264.52 0,-195.2 301.36,-226.5 597.42,-70.59 87.99,-167.54 176.03,-335.73 264.02,-505.13 -136,-24.57 -264.02,-47.89 -389.36,-59.52 -104.03,-34.4 -181.37,-105.58 -162.69,-187.84 39.98,-199.46 461.38,-108.64 728.07,108.65 130.69,-174.94 264.05,-351.08 397.38,-528.46 -789.41,-368.24 -1517.53,-205.62 -1626.87,268.24zm1821.57 27.01c-122.67,301.32 -242.71,600.87 -362.7,897.93 -248.06,611.92 -90.71,949.47 282.69,1048.93 410.7,115.97 976.12,-232.63 1488.19,-1117.7 -106.67,-31.89 -213.37,-63.82 -320.04,-96.36 -221.36,311.83 -594.75,701.57 -741.44,632.8 -101.32,-46.03 -101.32,-165.72 200.04,-827.97 69.32,-154.05 138.67,-308.1 210.7,-462.16 109.34,11.66 218.68,23.33 330.7,34.99 53.35,-136.89 106.67,-274.98 162.69,-414.31 -104.03,-9.8 -208.02,-19.02 -312.06,-28.21 189.36,-423.49 378.75,-853.77 570.77,-1289.54 -285.4,-11.66 -570.77,-23.95 -853.46,-34.99 -165.36,424.11 -330.69,843.31 -493.39,1257.62 -85.36,-7.36 -170.67,-14.11 -256.03,-21.47 -48.01,133.17 -96.01,265.76 -144.02,397.69 77.34,7.4 157.35,15.34 237.36,22.75z"/>
  </g>
  <g>
   <path class="fil0 str1" d="M2960.72 5348.49c-213.38,21.46 -381.53,-100.04 -461.43,-348.02 -80.09,-248.51 -77.34,-622.33 53.36,-1096.78 234.68,-22.7 482.73,-73.66 741.44,-153.43 765.42,-233.87 1505.82,-721.03 1986.89,-1223.87 473.71,-495.14 696.11,-1024.37 410.75,-1410.43 -162.7,-212.37 -528.07,-317.33 -920.14,-305.67 -552.05,23.95 -1115.38,258.44 -1610.87,638.92 -501.99,385.48 -946.79,924.94 -1272.14,1511.71 -173.35,-123.36 -272.04,-303.8 -264.06,-527.83 13.33,-344.92 312.06,-653.65 757.45,-661.63 -144.02,-374.4 -288.04,-752.48 -432.06,-1136.11 -434.73,22.75 -785.57,301.17 -1008.13,692.35 -225.46,396.26 -322.71,900.38 -250.68,1346.62 82.64,517.37 389.35,901 837.41,1094.96 -202.68,627.88 -224.61,1192.14 -82.68,1607.45 140.76,412.03 448.06,668.37 901.46,702.16 512.07,36.19 1152.81,-253.71 1720.21,-713.82 558.09,-452.55 1045.48,-1069.81 1226.81,-1771.97 -360.03,31.93 -720.09,65.68 -1077.45,101.29 -21.35,390.98 -164.01,784.72 -381.37,1090.04 -220,309.03 -525.4,532.75 -874.77,564.06zm2389.62 -3885.14c69.35,176.76 -57.43,469.91 -368.05,768.41 -313.42,301.18 -818.78,617.46 -1512.18,823.08 -213.37,65.06 -434.73,104.97 -640.08,118.45 448.06,-934.75 1028.01,-1468.08 1522.83,-1705.05 491.96,-235.58 898.79,-198.85 997.48,-4.89zm885.42 2194.81c205.39,-378.05 626.75,-368.86 512.07,-59.52 -85.32,189.05 -170.68,379.29 -253.36,568.95 -224.03,527.25 -18.76,793.25 410.74,746.98 407.92,-43.9 949.43,-443.75 1458.83,-1297.52 -106.67,-7.36 -213.34,-14.73 -320.05,-22.09 -218.68,308.73 -592.07,725.48 -741.4,696.62 -98.69,-19.65 -85.36,-95.12 226.66,-776.4 194.7,-404.5 104.04,-699.09 -173.35,-749.42 -157.34,-25.18 -482.69,-22.08 -850.74,259.02 106.67,-243.06 213.26,-484.37 320.04,-724.24 106.55,-239.41 213.34,-476.93 320.04,-713.2 -285.4,6.74 -570.76,14.1 -856.13,21.47 2.68,6.74 -233.75,588.59 -506.72,1317.75 -276.41,738.34 -597.42,1636.32 -770.77,2221.22 242.7,-33.12 485.41,-66.29 728.11,-96.98 82.65,-235.07 165.14,-468.36 248.02,-700.91 82.45,-231.43 165.36,-462.16 248.01,-691.73zm2197.63 -974.04c-96.01,213.61 -192.14,428.38 -288.04,643.22 -96.09,215.35 -192.02,433.34 -288.03,651.83 -213.38,505.13 -90.75,838.03 336.04,800.37 247.9,-21.85 544.07,-163.27 856.09,-459.72 5.35,246.12 152,386.49 445.39,366.42 405.32,-27.74 946.79,-397.1 1458.86,-1199.3 -112.01,-6.74 -224.03,-14.72 -336.04,-22.71 -224.03,314.85 -578.75,675.73 -725.44,643.23 -101.32,-20.89 -136,-103.11 224.02,-732.23 144.02,-255.95 288.04,-510.67 434.73,-764.76 -274.7,7.98 -546.74,16.58 -818.74,24.56 -141.38,306.87 -282.73,614.36 -424.07,923.71 -221.36,360.29 -578.75,662.24 -717.42,631.55 -101.36,-19.6 -133.36,-103.1 224.03,-753.68 144.02,-262.7 288.04,-524.16 434.73,-784.41 -272.04,9.22 -544.07,20.26 -816.11,31.92zm4243.19 162.04c13.33,-154.68 -90.67,-255.34 -253.36,-265.76 -184.01,-11.04 -378.7,9.8 -709.44,227.71 37.35,-75.48 74.7,-150.99 114.69,-226.47 -282.69,5.5 -565.38,11.66 -845.44,18.4 -157.35,337.56 -317.95,676.74 -472.04,1017.01 -155.26,342.82 -312.06,687.43 -466.74,1032.97 266.69,-15.97 533.42,-31.31 802.78,-44.79 146.69,-351.08 296.02,-702.16 445.39,-1052 245.34,-465.26 669.41,-514.35 498.74,-105.58 -160.03,376.84 -320.05,754.93 -480.07,1134.87 256.04,-10.46 512.07,-20.26 770.74,-30.11 138.71,-368.86 277.38,-734.66 416.05,-1099.84 181.37,-431.47 589.41,-430.27 474.76,-150.99 -88.03,166.95 -176.03,333.87 -264.06,500.83 -224.03,459.1 -24.02,729.43 408.08,719.94 405.28,-8.88 941.44,-345.54 1453.51,-1108.45 -117.36,5.5 -234.72,11.05 -349.41,15.35 -144.02,221.55 -560.03,591.07 -706.73,554.22 -101.36,-23.33 -48,-160.18 232.01,-640.16 277.39,-469.53 48.01,-782.55 -285.36,-783.79 -181.37,-3.07 -512.07,47.27 -784.1,286.64zm3165.74 -286.02c-210.7,-22.71 -386.73,31.92 -613.43,188.42 106.71,-207.45 216.05,-415.51 322.72,-622.96 106.66,-207.45 216.04,-414.89 325.39,-622.96 -285.37,-0.62 -570.77,-1.24 -853.46,-1.24 2.67,6.12 -221.63,515.48 -498.74,1144.05 -277.58,629.63 -608.08,1379.75 -821.41,1867.09 210.7,-3.06 421.36,-4.92 632.06,-6.16 24.02,-63.81 53.35,-123.36 85.36,-192.1 106.66,114.19 288.03,176.76 493.39,189.66 730.75,41.11 1290.82,-418.57 1440.18,-1027.42 101.36,-418.61 -18.67,-861.75 -512.06,-916.38zm-205.36 1005.96c-181.37,328.99 -669.41,526.63 -904.13,263.93 85.35,-185.98 170.71,-354.75 264.05,-510.67 170.68,-291.52 368.05,-337.55 509.39,-332.63 274.71,14.72 280.02,319.15 130.69,579.37zm1373.51 -998.6c-96.01,195.82 -192.03,392.22 -288.04,587.39 -96.01,195.16 -192.02,389.74 -288.04,584.29 -213.37,448.05 -90.62,769.03 336.05,779.49 248.01,6.08 544.07,-96.98 856.09,-347.4 5.35,235.69 152.16,385.14 445.39,397.73 405.47,17.43 946.79,-289.09 1458.86,-1048.31 -112.02,-15.97 -224.03,-32.51 -336.05,-49.71 -224.02,295.82 -578.74,620.51 -725.44,575.1 -101.32,-30.06 -133.32,-112.94 224.03,-702.77 144.02,-243.68 288.04,-486.73 434.73,-731.6 -272.03,-7.99 -544.07,-14.11 -816.1,-20.89 -144.02,290.95 -285.37,580.03 -426.71,869.11 -221.36,329.58 -578.75,584.91 -717.42,541.94 -101.36,-27.62 -133.37,-109.22 224.03,-695.37 144.01,-241.23 288.03,-483.05 434.73,-725.48 -272.04,-4.92 -544.07,-9.84 -816.11,-13.52zm3888.47 1003.52c-90.67,-343.1 416.05,-765.97 608.08,-875.85 -128.02,-141.78 -253.36,-282.93 -378.71,-424.12 -157.34,94.54 -288.03,228.95 -386.72,373.16 -66.68,-20.22 -144.02,-32.5 -240.03,-35.56 -320.04,-6.78 -674.65,96.59 -957.45,289.7 -282.54,192.92 -501.38,472.58 -554.73,821.22 -85.36,562.82 330.7,897.32 880.12,948.85 717.42,74.9 1306.82,-332.63 1728.22,-1002.28 -104.03,-29.45 -208.03,-57.69 -312.06,-85.32 -352.05,515.59 -965.43,545.66 -1128.13,513.11 -736.09,-134.41 -210.7,-1035.41 381.38,-987.52 -37.35,168.16 -32,324.66 16,452.33 114.69,4.3 229.34,8.6 344.03,12.28zm626.75 1232.43c80.01,-211.75 152.04,-393.43 218.68,-543.8 16.01,-39.87 34.68,-75.48 53.36,-109.22 48,324.69 306.94,708.31 704.09,752.48 656.28,73 1138.82,-550.58 1453.52,-1042.19 -114.69,-11.66 -229.38,-22.08 -344.07,-32.55 -173.35,229.57 -450.69,515.6 -765.43,546.28 -168,17.17 -277.34,-143.63 -282.69,-214.84 360.07,-108.61 765.43,-400.17 848.11,-794.8 66.69,-322.25 -106.62,-611.53 -480.06,-632.8 -175.94,-9.99 -453.4,82.84 -658.76,261.46 109.34,-227.71 219,-456.58 328.07,-687.43 109.57,-231.9 218.68,-465.22 330.69,-700.3 -280.02,-6.74 -560.07,-13.52 -837.45,-20.26 2.67,4.92 -227.71,551.86 -504.05,1218.95 -273.04,659.22 -594.75,1436.82 -768.1,1937.03 234.68,19.64 469.41,39.9 704.09,61.99zm1090.82 -1182.72c-152.04,203.14 -541.4,356.62 -770.78,426.59 240.03,-480.6 445.39,-703.39 642.76,-717.5 141.35,-13.52 253.36,121.51 128.02,290.91zm1272.14 -267.58c-29.33,123.95 -5.34,242.43 53.36,350.46 -386.73,61.99 -642.76,249.17 -680.11,622.95 -48.01,462.17 459.02,743.27 874.81,801.58 717.65,100.62 1330.8,-400.79 1698.85,-1093.1 -120,-14.72 -240.03,-28.87 -357.35,-42.97 -408.08,555.46 -861.48,641.36 -1120.15,600.25 -120.03,-19.64 -277.38,-107.4 -277.38,-264.52 0,-195.2 301.36,-226.5 597.42,-70.59 87.99,-167.54 176.03,-335.73 264.02,-505.13 -136,-24.57 -264.02,-47.89 -389.36,-59.52 -104.03,-34.4 -181.37,-105.58 -162.69,-187.84 39.98,-199.46 461.38,-108.64 728.07,108.65 130.69,-174.94 264.05,-351.08 397.38,-528.46 -789.41,-368.24 -1517.53,-205.62 -1626.87,268.24zm1821.57 27.01c-122.67,301.32 -242.71,600.87 -362.7,897.93 -248.06,611.92 -90.71,949.47 282.69,1048.93 410.7,115.97 976.12,-232.63 1488.19,-1117.7 -106.67,-31.89 -213.37,-63.82 -320.04,-96.36 -221.36,311.83 -594.75,701.57 -741.44,632.8 -101.32,-46.03 -101.32,-165.72 200.04,-827.97 69.32,-154.05 138.67,-308.1 210.7,-462.16 109.34,11.66 218.68,23.33 330.7,34.99 53.35,-136.89 106.67,-274.98 162.69,-414.31 -104.03,-9.8 -208.02,-19.02 -312.06,-28.21 189.36,-423.49 378.75,-853.77 570.77,-1289.54 -285.4,-11.66 -570.77,-23.95 -853.46,-34.99 -165.36,424.11 -330.69,843.31 -493.39,1257.62 -85.36,-7.36 -170.67,-14.11 -256.03,-21.47 -48.01,133.17 -96.01,265.76 -144.02,397.69 77.34,7.4 157.35,15.34 237.36,22.75z"/>
   <path id="1" class="fil1" d="M2960.72 5348.49c-213.38,21.46 -381.53,-100.04 -461.43,-348.02 -80.09,-248.51 -77.34,-622.33 53.36,-1096.78 234.68,-22.7 482.73,-73.66 741.44,-153.43 765.42,-233.87 1505.82,-721.03 1986.89,-1223.87 473.71,-495.14 696.11,-1024.37 410.75,-1410.43 -162.7,-212.37 -528.07,-317.33 -920.14,-305.67 -552.05,23.95 -1115.38,258.44 -1610.87,638.92 -501.99,385.48 -946.79,924.94 -1272.14,1511.71 -173.35,-123.36 -272.04,-303.8 -264.06,-527.83 13.33,-344.92 312.06,-653.65 757.45,-661.63 -144.02,-374.4 -288.04,-752.48 -432.06,-1136.11 -434.73,22.75 -785.57,301.17 -1008.13,692.35 -225.46,396.26 -322.71,900.38 -250.68,1346.62 82.64,517.37 389.35,901 837.41,1094.96 -202.68,627.88 -224.61,1192.14 -82.68,1607.45 140.76,412.03 448.06,668.37 901.46,702.16 512.07,36.19 1152.81,-253.71 1720.21,-713.82 558.09,-452.55 1045.48,-1069.81 1226.81,-1771.97 -360.03,31.93 -720.09,65.68 -1077.45,101.29 -21.35,390.98 -164.01,784.72 -381.37,1090.04 -220,309.03 -525.4,532.75 -874.77,564.06zm2389.62 -3885.14c69.35,176.76 -57.43,469.91 -368.05,768.41 -313.42,301.18 -818.78,617.46 -1512.18,823.08 -213.37,65.06 -434.73,104.97 -640.08,118.45 448.06,-934.75 1028.01,-1468.08 1522.83,-1705.05 491.96,-235.58 898.79,-198.85 997.48,-4.89zm885.42 2194.81c205.39,-378.05 626.75,-368.86 512.07,-59.52 -85.32,189.05 -170.68,379.29 -253.36,568.95 -224.03,527.25 -18.76,793.25 410.74,746.98 407.92,-43.9 949.43,-443.75 1458.83,-1297.52 -106.67,-7.36 -213.34,-14.73 -320.05,-22.09 -218.68,308.73 -592.07,725.48 -741.4,696.62 -98.69,-19.65 -85.36,-95.12 226.66,-776.4 194.7,-404.5 104.04,-699.09 -173.35,-749.42 -157.34,-25.18 -482.69,-22.08 -850.74,259.02 106.67,-243.06 213.26,-484.37 320.04,-724.24 106.55,-239.41 213.34,-476.93 320.04,-713.2 -285.4,6.74 -570.76,14.1 -856.13,21.47 2.68,6.74 -233.75,588.59 -506.72,1317.75 -276.41,738.34 -597.42,1636.32 -770.77,2221.22 242.7,-33.12 485.41,-66.29 728.11,-96.98 82.65,-235.07 165.14,-468.36 248.02,-700.91 82.45,-231.43 165.36,-462.16 248.01,-691.73zm2197.63 -974.04c-96.01,213.61 -192.14,428.38 -288.04,643.22 -96.09,215.35 -192.02,433.34 -288.03,651.83 -213.38,505.13 -90.75,838.03 336.04,800.37 247.9,-21.85 544.07,-163.27 856.09,-459.72 5.35,246.12 152,386.49 445.39,366.42 405.32,-27.74 946.79,-397.1 1458.86,-1199.3 -112.01,-6.74 -224.03,-14.72 -336.04,-22.71 -224.03,314.85 -578.75,675.73 -725.44,643.23 -101.32,-20.89 -136,-103.11 224.02,-732.23 144.02,-255.95 288.04,-510.67 434.73,-764.76 -274.7,7.98 -546.74,16.58 -818.74,24.56 -141.38,306.87 -282.73,614.36 -424.07,923.71 -221.36,360.29 -578.75,662.24 -717.42,631.55 -101.36,-19.6 -133.36,-103.1 224.03,-753.68 144.02,-262.7 288.04,-524.16 434.73,-784.41 -272.04,9.22 -544.07,20.26 -816.11,31.92zm4243.19 162.04c13.33,-154.68 -90.67,-255.34 -253.36,-265.76 -184.01,-11.04 -378.7,9.8 -709.44,227.71 37.35,-75.48 74.7,-150.99 114.69,-226.47 -282.69,5.5 -565.38,11.66 -845.44,18.4 -157.35,337.56 -317.95,676.74 -472.04,1017.01 -155.26,342.82 -312.06,687.43 -466.74,1032.97 266.69,-15.97 533.42,-31.31 802.78,-44.79 146.69,-351.08 296.02,-702.16 445.39,-1052 245.34,-465.26 669.41,-514.35 498.74,-105.58 -160.03,376.84 -320.05,754.93 -480.07,1134.87 256.04,-10.46 512.07,-20.26 770.74,-30.11 138.71,-368.86 277.38,-734.66 416.05,-1099.84 181.37,-431.47 589.41,-430.27 474.76,-150.99 -88.03,166.95 -176.03,333.87 -264.06,500.83 -224.03,459.1 -24.02,729.43 408.08,719.94 405.28,-8.88 941.44,-345.54 1453.51,-1108.45 -117.36,5.5 -234.72,11.05 -349.41,15.35 -144.02,221.55 -560.03,591.07 -706.73,554.22 -101.36,-23.33 -48,-160.18 232.01,-640.16 277.39,-469.53 48.01,-782.55 -285.36,-783.79 -181.37,-3.07 -512.07,47.27 -784.1,286.64zm3165.74 -286.02c-210.7,-22.71 -386.73,31.92 -613.43,188.42 106.71,-207.45 216.05,-415.51 322.72,-622.96 106.66,-207.45 216.04,-414.89 325.39,-622.96 -285.37,-0.62 -570.77,-1.24 -853.46,-1.24 2.67,6.12 -221.63,515.48 -498.74,1144.05 -277.58,629.63 -608.08,1379.75 -821.41,1867.09 210.7,-3.06 421.36,-4.92 632.06,-6.16 24.02,-63.81 53.35,-123.36 85.36,-192.1 106.66,114.19 288.03,176.76 493.39,189.66 730.75,41.11 1290.82,-418.57 1440.18,-1027.42 101.36,-418.61 -18.67,-861.75 -512.06,-916.38zm-205.36 1005.96c-181.37,328.99 -669.41,526.63 -904.13,263.93 85.35,-185.98 170.71,-354.75 264.05,-510.67 170.68,-291.52 368.05,-337.55 509.39,-332.63 274.71,14.72 280.02,319.15 130.69,579.37zm1373.51 -998.6c-96.01,195.82 -192.03,392.22 -288.04,587.39 -96.01,195.16 -192.02,389.74 -288.04,584.29 -213.37,448.05 -90.62,769.03 336.05,779.49 248.01,6.08 544.07,-96.98 856.09,-347.4 5.35,235.69 152.16,385.14 445.39,397.73 405.47,17.43 946.79,-289.09 1458.86,-1048.31 -112.02,-15.97 -224.03,-32.51 -336.05,-49.71 -224.02,295.82 -578.74,620.51 -725.44,575.1 -101.32,-30.06 -133.32,-112.94 224.03,-702.77 144.02,-243.68 288.04,-486.73 434.73,-731.6 -272.03,-7.99 -544.07,-14.11 -816.1,-20.89 -144.02,290.95 -285.37,580.03 -426.71,869.11 -221.36,329.58 -578.75,584.91 -717.42,541.94 -101.36,-27.62 -133.37,-109.22 224.03,-695.37 144.01,-241.23 288.03,-483.05 434.73,-725.48 -272.04,-4.92 -544.07,-9.84 -816.11,-13.52zm3888.47 1003.52c-90.67,-343.1 416.05,-765.97 608.08,-875.85 -128.02,-141.78 -253.36,-282.93 -378.71,-424.12 -157.34,94.54 -288.03,228.95 -386.72,373.16 -66.68,-20.22 -144.02,-32.5 -240.03,-35.56 -320.04,-6.78 -674.65,96.59 -957.45,289.7 -282.54,192.92 -501.38,472.58 -554.73,821.22 -85.36,562.82 330.7,897.32 880.12,948.85 717.42,74.9 1306.82,-332.63 1728.22,-1002.28 -104.03,-29.45 -208.03,-57.69 -312.06,-85.32 -352.05,515.59 -965.43,545.66 -1128.13,513.11 -736.09,-134.41 -210.7,-1035.41 381.38,-987.52 -37.35,168.16 -32,324.66 16,452.33 114.69,4.3 229.34,8.6 344.03,12.28zm626.75 1232.43c80.01,-211.75 152.04,-393.43 218.68,-543.8 16.01,-39.87 34.68,-75.48 53.36,-109.22 48,324.69 306.94,708.31 704.09,752.48 656.28,73 1138.82,-550.58 1453.52,-1042.19 -114.69,-11.66 -229.38,-22.08 -344.07,-32.55 -173.35,229.57 -450.69,515.6 -765.43,546.28 -168,17.17 -277.34,-143.63 -282.69,-214.84 360.07,-108.61 765.43,-400.17 848.11,-794.8 66.69,-322.25 -106.62,-611.53 -480.06,-632.8 -175.94,-9.99 -453.4,82.84 -658.76,261.46 109.34,-227.71 219,-456.58 328.07,-687.43 109.57,-231.9 218.68,-465.22 330.69,-700.3 -280.02,-6.74 -560.07,-13.52 -837.45,-20.26 2.67,4.92 -227.71,551.86 -504.05,1218.95 -273.04,659.22 -594.75,1436.82 -768.1,1937.03 234.68,19.64 469.41,39.9 704.09,61.99zm1090.82 -1182.72c-152.04,203.14 -541.4,356.62 -770.78,426.59 240.03,-480.6 445.39,-703.39 642.76,-717.5 141.35,-13.52 253.36,121.51 128.02,290.91zm1272.14 -267.58c-29.33,123.95 -5.34,242.43 53.36,350.46 -386.73,61.99 -642.76,249.17 -680.11,622.95 -48.01,462.17 459.02,743.27 874.81,801.58 717.65,100.62 1330.8,-400.79 1698.85,-1093.1 -120,-14.72 -240.03,-28.87 -357.35,-42.97 -408.08,555.46 -861.48,641.36 -1120.15,600.25 -120.03,-19.64 -277.38,-107.4 -277.38,-264.52 0,-195.2 301.36,-226.5 597.42,-70.59 87.99,-167.54 176.03,-335.73 264.02,-505.13 -136,-24.57 -264.02,-47.89 -389.36,-59.52 -104.03,-34.4 -181.37,-105.58 -162.69,-187.84 39.98,-199.46 461.38,-108.64 728.07,108.65 130.69,-174.94 264.05,-351.08 397.38,-528.46 -789.41,-368.24 -1517.53,-205.62 -1626.87,268.24zm1821.57 27.01c-122.67,301.32 -242.71,600.87 -362.7,897.93 -248.06,611.92 -90.71,949.47 282.69,1048.93 410.7,115.97 976.12,-232.63 1488.19,-1117.7 -106.67,-31.89 -213.37,-63.82 -320.04,-96.36 -221.36,311.83 -594.75,701.57 -741.44,632.8 -101.32,-46.03 -101.32,-165.72 200.04,-827.97 69.32,-154.05 138.67,-308.1 210.7,-462.16 109.34,11.66 218.68,23.33 330.7,34.99 53.35,-136.89 106.67,-274.98 162.69,-414.31 -104.03,-9.8 -208.02,-19.02 -312.06,-28.21 189.36,-423.49 378.75,-853.77 570.77,-1289.54 -285.4,-11.66 -570.77,-23.95 -853.46,-34.99 -165.36,424.11 -330.69,843.31 -493.39,1257.62 -85.36,-7.36 -170.67,-14.11 -256.03,-21.47 -48.01,133.17 -96.01,265.76 -144.02,397.69 77.34,7.4 157.35,15.34 237.36,22.75z"/>
  </g>
  <g>
   <path class="fil0 str2" d="M2960.72 5348.49c-213.38,21.46 -381.53,-100.04 -461.43,-348.02 -80.09,-248.51 -77.34,-622.33 53.36,-1096.78 234.68,-22.7 482.73,-73.66 741.44,-153.43 765.42,-233.87 1505.82,-721.03 1986.89,-1223.87 473.71,-495.14 696.11,-1024.37 410.75,-1410.43 -162.7,-212.37 -528.07,-317.33 -920.14,-305.67 -552.05,23.95 -1115.38,258.44 -1610.87,638.92 -501.99,385.48 -946.79,924.94 -1272.14,1511.71 -173.35,-123.36 -272.04,-303.8 -264.06,-527.83 13.33,-344.92 312.06,-653.65 757.45,-661.63 -144.02,-374.4 -288.04,-752.48 -432.06,-1136.11 -434.73,22.75 -785.57,301.17 -1008.13,692.35 -225.46,396.26 -322.71,900.38 -250.68,1346.62 82.64,517.37 389.35,901 837.41,1094.96 -202.68,627.88 -224.61,1192.14 -82.68,1607.45 140.76,412.03 448.06,668.37 901.46,702.16 512.07,36.19 1152.81,-253.71 1720.21,-713.82 558.09,-452.55 1045.48,-1069.81 1226.81,-1771.97 -360.03,31.93 -720.09,65.68 -1077.45,101.29 -21.35,390.98 -164.01,784.72 -381.37,1090.04 -220,309.03 -525.4,532.75 -874.77,564.06zm2389.62 -3885.14c69.35,176.76 -57.43,469.91 -368.05,768.41 -313.42,301.18 -818.78,617.46 -1512.18,823.08 -213.37,65.06 -434.73,104.97 -640.08,118.45 448.06,-934.75 1028.01,-1468.08 1522.83,-1705.05 491.96,-235.58 898.79,-198.85 997.48,-4.89zm885.42 2194.81c205.39,-378.05 626.75,-368.86 512.07,-59.52 -85.32,189.05 -170.68,379.29 -253.36,568.95 -224.03,527.25 -18.76,793.25 410.74,746.98 407.92,-43.9 949.43,-443.75 1458.83,-1297.52 -106.67,-7.36 -213.34,-14.73 -320.05,-22.09 -218.68,308.73 -592.07,725.48 -741.4,696.62 -98.69,-19.65 -85.36,-95.12 226.66,-776.4 194.7,-404.5 104.04,-699.09 -173.35,-749.42 -157.34,-25.18 -482.69,-22.08 -850.74,259.02 106.67,-243.06 213.26,-484.37 320.04,-724.24 106.55,-239.41 213.34,-476.93 320.04,-713.2 -285.4,6.74 -570.76,14.1 -856.13,21.47 2.68,6.74 -233.75,588.59 -506.72,1317.75 -276.41,738.34 -597.42,1636.32 -770.77,2221.22 242.7,-33.12 485.41,-66.29 728.11,-96.98 82.65,-235.07 165.14,-468.36 248.02,-700.91 82.45,-231.43 165.36,-462.16 248.01,-691.73zm2197.63 -974.04c-96.01,213.61 -192.14,428.38 -288.04,643.22 -96.09,215.35 -192.02,433.34 -288.03,651.83 -213.38,505.13 -90.75,838.03 336.04,800.37 247.9,-21.85 544.07,-163.27 856.09,-459.72 5.35,246.12 152,386.49 445.39,366.42 405.32,-27.74 946.79,-397.1 1458.86,-1199.3 -112.01,-6.74 -224.03,-14.72 -336.04,-22.71 -224.03,314.85 -578.75,675.73 -725.44,643.23 -101.32,-20.89 -136,-103.11 224.02,-732.23 144.02,-255.95 288.04,-510.67 434.73,-764.76 -274.7,7.98 -546.74,16.58 -818.74,24.56 -141.38,306.87 -282.73,614.36 -424.07,923.71 -221.36,360.29 -578.75,662.24 -717.42,631.55 -101.36,-19.6 -133.36,-103.1 224.03,-753.68 144.02,-262.7 288.04,-524.16 434.73,-784.41 -272.04,9.22 -544.07,20.26 -816.11,31.92zm4243.19 162.04c13.33,-154.68 -90.67,-255.34 -253.36,-265.76 -184.01,-11.04 -378.7,9.8 -709.44,227.71 37.35,-75.48 74.7,-150.99 114.69,-226.47 -282.69,5.5 -565.38,11.66 -845.44,18.4 -157.35,337.56 -317.95,676.74 -472.04,1017.01 -155.26,342.82 -312.06,687.43 -466.74,1032.97 266.69,-15.97 533.42,-31.31 802.78,-44.79 146.69,-351.08 296.02,-702.16 445.39,-1052 245.34,-465.26 669.41,-514.35 498.74,-105.58 -160.03,376.84 -320.05,754.93 -480.07,1134.87 256.04,-10.46 512.07,-20.26 770.74,-30.11 138.71,-368.86 277.38,-734.66 416.05,-1099.84 181.37,-431.47 589.41,-430.27 474.76,-150.99 -88.03,166.95 -176.03,333.87 -264.06,500.83 -224.03,459.1 -24.02,729.43 408.08,719.94 405.28,-8.88 941.44,-345.54 1453.51,-1108.45 -117.36,5.5 -234.72,11.05 -349.41,15.35 -144.02,221.55 -560.03,591.07 -706.73,554.22 -101.36,-23.33 -48,-160.18 232.01,-640.16 277.39,-469.53 48.01,-782.55 -285.36,-783.79 -181.37,-3.07 -512.07,47.27 -784.1,286.64zm3165.74 -286.02c-210.7,-22.71 -386.73,31.92 -613.43,188.42 106.71,-207.45 216.05,-415.51 322.72,-622.96 106.66,-207.45 216.04,-414.89 325.39,-622.96 -285.37,-0.62 -570.77,-1.24 -853.46,-1.24 2.67,6.12 -221.63,515.48 -498.74,1144.05 -277.58,629.63 -608.08,1379.75 -821.41,1867.09 210.7,-3.06 421.36,-4.92 632.06,-6.16 24.02,-63.81 53.35,-123.36 85.36,-192.1 106.66,114.19 288.03,176.76 493.39,189.66 730.75,41.11 1290.82,-418.57 1440.18,-1027.42 101.36,-418.61 -18.67,-861.75 -512.06,-916.38zm-205.36 1005.96c-181.37,328.99 -669.41,526.63 -904.13,263.93 85.35,-185.98 170.71,-354.75 264.05,-510.67 170.68,-291.52 368.05,-337.55 509.39,-332.63 274.71,14.72 280.02,319.15 130.69,579.37zm1373.51 -998.6c-96.01,195.82 -192.03,392.22 -288.04,587.39 -96.01,195.16 -192.02,389.74 -288.04,584.29 -213.37,448.05 -90.62,769.03 336.05,779.49 248.01,6.08 544.07,-96.98 856.09,-347.4 5.35,235.69 152.16,385.14 445.39,397.73 405.47,17.43 946.79,-289.09 1458.86,-1048.31 -112.02,-15.97 -224.03,-32.51 -336.05,-49.71 -224.02,295.82 -578.74,620.51 -725.44,575.1 -101.32,-30.06 -133.32,-112.94 224.03,-702.77 144.02,-243.68 288.04,-486.73 434.73,-731.6 -272.03,-7.99 -544.07,-14.11 -816.1,-20.89 -144.02,290.95 -285.37,580.03 -426.71,869.11 -221.36,329.58 -578.75,584.91 -717.42,541.94 -101.36,-27.62 -133.37,-109.22 224.03,-695.37 144.01,-241.23 288.03,-483.05 434.73,-725.48 -272.04,-4.92 -544.07,-9.84 -816.11,-13.52zm3888.47 1003.52c-90.67,-343.1 416.05,-765.97 608.08,-875.85 -128.02,-141.78 -253.36,-282.93 -378.71,-424.12 -157.34,94.54 -288.03,228.95 -386.72,373.16 -66.68,-20.22 -144.02,-32.5 -240.03,-35.56 -320.04,-6.78 -674.65,96.59 -957.45,289.7 -282.54,192.92 -501.38,472.58 -554.73,821.22 -85.36,562.82 330.7,897.32 880.12,948.85 717.42,74.9 1306.82,-332.63 1728.22,-1002.28 -104.03,-29.45 -208.03,-57.69 -312.06,-85.32 -352.05,515.59 -965.43,545.66 -1128.13,513.11 -736.09,-134.41 -210.7,-1035.41 381.38,-987.52 -37.35,168.16 -32,324.66 16,452.33 114.69,4.3 229.34,8.6 344.03,12.28zm626.75 1232.43c80.01,-211.75 152.04,-393.43 218.68,-543.8 16.01,-39.87 34.68,-75.48 53.36,-109.22 48,324.69 306.94,708.31 704.09,752.48 656.28,73 1138.82,-550.58 1453.52,-1042.19 -114.69,-11.66 -229.38,-22.08 -344.07,-32.55 -173.35,229.57 -450.69,515.6 -765.43,546.28 -168,17.17 -277.34,-143.63 -282.69,-214.84 360.07,-108.61 765.43,-400.17 848.11,-794.8 66.69,-322.25 -106.62,-611.53 -480.06,-632.8 -175.94,-9.99 -453.4,82.84 -658.76,261.46 109.34,-227.71 219,-456.58 328.07,-687.43 109.57,-231.9 218.68,-465.22 330.69,-700.3 -280.02,-6.74 -560.07,-13.52 -837.45,-20.26 2.67,4.92 -227.71,551.86 -504.05,1218.95 -273.04,659.22 -594.75,1436.82 -768.1,1937.03 234.68,19.64 469.41,39.9 704.09,61.99zm1090.82 -1182.72c-152.04,203.14 -541.4,356.62 -770.78,426.59 240.03,-480.6 445.39,-703.39 642.76,-717.5 141.35,-13.52 253.36,121.51 128.02,290.91zm1272.14 -267.58c-29.33,123.95 -5.34,242.43 53.36,350.46 -386.73,61.99 -642.76,249.17 -680.11,622.95 -48.01,462.17 459.02,743.27 874.81,801.58 717.65,100.62 1330.8,-400.79 1698.85,-1093.1 -120,-14.72 -240.03,-28.87 -357.35,-42.97 -408.08,555.46 -861.48,641.36 -1120.15,600.25 -120.03,-19.64 -277.38,-107.4 -277.38,-264.52 0,-195.2 301.36,-226.5 597.42,-70.59 87.99,-167.54 176.03,-335.73 264.02,-505.13 -136,-24.57 -264.02,-47.89 -389.36,-59.52 -104.03,-34.4 -181.37,-105.58 -162.69,-187.84 39.98,-199.46 461.38,-108.64 728.07,108.65 130.69,-174.94 264.05,-351.08 397.38,-528.46 -789.41,-368.24 -1517.53,-205.62 -1626.87,268.24zm1821.57 27.01c-122.67,301.32 -242.71,600.87 -362.7,897.93 -248.06,611.92 -90.71,949.47 282.69,1048.93 410.7,115.97 976.12,-232.63 1488.19,-1117.7 -106.67,-31.89 -213.37,-63.82 -320.04,-96.36 -221.36,311.83 -594.75,701.57 -741.44,632.8 -101.32,-46.03 -101.32,-165.72 200.04,-827.97 69.32,-154.05 138.67,-308.1 210.7,-462.16 109.34,11.66 218.68,23.33 330.7,34.99 53.35,-136.89 106.67,-274.98 162.69,-414.31 -104.03,-9.8 -208.02,-19.02 -312.06,-28.21 189.36,-423.49 378.75,-853.77 570.77,-1289.54 -285.4,-11.66 -570.77,-23.95 -853.46,-34.99 -165.36,424.11 -330.69,843.31 -493.39,1257.62 -85.36,-7.36 -170.67,-14.11 -256.03,-21.47 -48.01,133.17 -96.01,265.76 -144.02,397.69 77.34,7.4 157.35,15.34 237.36,22.75z"/>
   <path id="1" class="fil1" d="M2960.72 5348.49c-213.38,21.46 -381.53,-100.04 -461.43,-348.02 -80.09,-248.51 -77.34,-622.33 53.36,-1096.78 234.68,-22.7 482.73,-73.66 741.44,-153.43 765.42,-233.87 1505.82,-721.03 1986.89,-1223.87 473.71,-495.14 696.11,-1024.37 410.75,-1410.43 -162.7,-212.37 -528.07,-317.33 -920.14,-305.67 -552.05,23.95 -1115.38,258.44 -1610.87,638.92 -501.99,385.48 -946.79,924.94 -1272.14,1511.71 -173.35,-123.36 -272.04,-303.8 -264.06,-527.83 13.33,-344.92 312.06,-653.65 757.45,-661.63 -144.02,-374.4 -288.04,-752.48 -432.06,-1136.11 -434.73,22.75 -785.57,301.17 -1008.13,692.35 -225.46,396.26 -322.71,900.38 -250.68,1346.62 82.64,517.37 389.35,901 837.41,1094.96 -202.68,627.88 -224.61,1192.14 -82.68,1607.45 140.76,412.03 448.06,668.37 901.46,702.16 512.07,36.19 1152.81,-253.71 1720.21,-713.82 558.09,-452.55 1045.48,-1069.81 1226.81,-1771.97 -360.03,31.93 -720.09,65.68 -1077.45,101.29 -21.35,390.98 -164.01,784.72 -381.37,1090.04 -220,309.03 -525.4,532.75 -874.77,564.06zm2389.62 -3885.14c69.35,176.76 -57.43,469.91 -368.05,768.41 -313.42,301.18 -818.78,617.46 -1512.18,823.08 -213.37,65.06 -434.73,104.97 -640.08,118.45 448.06,-934.75 1028.01,-1468.08 1522.83,-1705.05 491.96,-235.58 898.79,-198.85 997.48,-4.89zm885.42 2194.81c205.39,-378.05 626.75,-368.86 512.07,-59.52 -85.32,189.05 -170.68,379.29 -253.36,568.95 -224.03,527.25 -18.76,793.25 410.74,746.98 407.92,-43.9 949.43,-443.75 1458.83,-1297.52 -106.67,-7.36 -213.34,-14.73 -320.05,-22.09 -218.68,308.73 -592.07,725.48 -741.4,696.62 -98.69,-19.65 -85.36,-95.12 226.66,-776.4 194.7,-404.5 104.04,-699.09 -173.35,-749.42 -157.34,-25.18 -482.69,-22.08 -850.74,259.02 106.67,-243.06 213.26,-484.37 320.04,-724.24 106.55,-239.41 213.34,-476.93 320.04,-713.2 -285.4,6.74 -570.76,14.1 -856.13,21.47 2.68,6.74 -233.75,588.59 -506.72,1317.75 -276.41,738.34 -597.42,1636.32 -770.77,2221.22 242.7,-33.12 485.41,-66.29 728.11,-96.98 82.65,-235.07 165.14,-468.36 248.02,-700.91 82.45,-231.43 165.36,-462.16 248.01,-691.73zm2197.63 -974.04c-96.01,213.61 -192.14,428.38 -288.04,643.22 -96.09,215.35 -192.02,433.34 -288.03,651.83 -213.38,505.13 -90.75,838.03 336.04,800.37 247.9,-21.85 544.07,-163.27 856.09,-459.72 5.35,246.12 152,386.49 445.39,366.42 405.32,-27.74 946.79,-397.1 1458.86,-1199.3 -112.01,-6.74 -224.03,-14.72 -336.04,-22.71 -224.03,314.85 -578.75,675.73 -725.44,643.23 -101.32,-20.89 -136,-103.11 224.02,-732.23 144.02,-255.95 288.04,-510.67 434.73,-764.76 -274.7,7.98 -546.74,16.58 -818.74,24.56 -141.38,306.87 -282.73,614.36 -424.07,923.71 -221.36,360.29 -578.75,662.24 -717.42,631.55 -101.36,-19.6 -133.36,-103.1 224.03,-753.68 144.02,-262.7 288.04,-524.16 434.73,-784.41 -272.04,9.22 -544.07,20.26 -816.11,31.92zm4243.19 162.04c13.33,-154.68 -90.67,-255.34 -253.36,-265.76 -184.01,-11.04 -378.7,9.8 -709.44,227.71 37.35,-75.48 74.7,-150.99 114.69,-226.47 -282.69,5.5 -565.38,11.66 -845.44,18.4 -157.35,337.56 -317.95,676.74 -472.04,1017.01 -155.26,342.82 -312.06,687.43 -466.74,1032.97 266.69,-15.97 533.42,-31.31 802.78,-44.79 146.69,-351.08 296.02,-702.16 445.39,-1052 245.34,-465.26 669.41,-514.35 498.74,-105.58 -160.03,376.84 -320.05,754.93 -480.07,1134.87 256.04,-10.46 512.07,-20.26 770.74,-30.11 138.71,-368.86 277.38,-734.66 416.05,-1099.84 181.37,-431.47 589.41,-430.27 474.76,-150.99 -88.03,166.95 -176.03,333.87 -264.06,500.83 -224.03,459.1 -24.02,729.43 408.08,719.94 405.28,-8.88 941.44,-345.54 1453.51,-1108.45 -117.36,5.5 -234.72,11.05 -349.41,15.35 -144.02,221.55 -560.03,591.07 -706.73,554.22 -101.36,-23.33 -48,-160.18 232.01,-640.16 277.39,-469.53 48.01,-782.55 -285.36,-783.79 -181.37,-3.07 -512.07,47.27 -784.1,286.64zm3165.74 -286.02c-210.7,-22.71 -386.73,31.92 -613.43,188.42 106.71,-207.45 216.05,-415.51 322.72,-622.96 106.66,-207.45 216.04,-414.89 325.39,-622.96 -285.37,-0.62 -570.77,-1.24 -853.46,-1.24 2.67,6.12 -221.63,515.48 -498.74,1144.05 -277.58,629.63 -608.08,1379.75 -821.41,1867.09 210.7,-3.06 421.36,-4.92 632.06,-6.16 24.02,-63.81 53.35,-123.36 85.36,-192.1 106.66,114.19 288.03,176.76 493.39,189.66 730.75,41.11 1290.82,-418.57 1440.18,-1027.42 101.36,-418.61 -18.67,-861.75 -512.06,-916.38zm-205.36 1005.96c-181.37,328.99 -669.41,526.63 -904.13,263.93 85.35,-185.98 170.71,-354.75 264.05,-510.67 170.68,-291.52 368.05,-337.55 509.39,-332.63 274.71,14.72 280.02,319.15 130.69,579.37zm1373.51 -998.6c-96.01,195.82 -192.03,392.22 -288.04,587.39 -96.01,195.16 -192.02,389.74 -288.04,584.29 -213.37,448.05 -90.62,769.03 336.05,779.49 248.01,6.08 544.07,-96.98 856.09,-347.4 5.35,235.69 152.16,385.14 445.39,397.73 405.47,17.43 946.79,-289.09 1458.86,-1048.31 -112.02,-15.97 -224.03,-32.51 -336.05,-49.71 -224.02,295.82 -578.74,620.51 -725.44,575.1 -101.32,-30.06 -133.32,-112.94 224.03,-702.77 144.02,-243.68 288.04,-486.73 434.73,-731.6 -272.03,-7.99 -544.07,-14.11 -816.1,-20.89 -144.02,290.95 -285.37,580.03 -426.71,869.11 -221.36,329.58 -578.75,584.91 -717.42,541.94 -101.36,-27.62 -133.37,-109.22 224.03,-695.37 144.01,-241.23 288.03,-483.05 434.73,-725.48 -272.04,-4.92 -544.07,-9.84 -816.11,-13.52zm3888.47 1003.52c-90.67,-343.1 416.05,-765.97 608.08,-875.85 -128.02,-141.78 -253.36,-282.93 -378.71,-424.12 -157.34,94.54 -288.03,228.95 -386.72,373.16 -66.68,-20.22 -144.02,-32.5 -240.03,-35.56 -320.04,-6.78 -674.65,96.59 -957.45,289.7 -282.54,192.92 -501.38,472.58 -554.73,821.22 -85.36,562.82 330.7,897.32 880.12,948.85 717.42,74.9 1306.82,-332.63 1728.22,-1002.28 -104.03,-29.45 -208.03,-57.69 -312.06,-85.32 -352.05,515.59 -965.43,545.66 -1128.13,513.11 -736.09,-134.41 -210.7,-1035.41 381.38,-987.52 -37.35,168.16 -32,324.66 16,452.33 114.69,4.3 229.34,8.6 344.03,12.28zm626.75 1232.43c80.01,-211.75 152.04,-393.43 218.68,-543.8 16.01,-39.87 34.68,-75.48 53.36,-109.22 48,324.69 306.94,708.31 704.09,752.48 656.28,73 1138.82,-550.58 1453.52,-1042.19 -114.69,-11.66 -229.38,-22.08 -344.07,-32.55 -173.35,229.57 -450.69,515.6 -765.43,546.28 -168,17.17 -277.34,-143.63 -282.69,-214.84 360.07,-108.61 765.43,-400.17 848.11,-794.8 66.69,-322.25 -106.62,-611.53 -480.06,-632.8 -175.94,-9.99 -453.4,82.84 -658.76,261.46 109.34,-227.71 219,-456.58 328.07,-687.43 109.57,-231.9 218.68,-465.22 330.69,-700.3 -280.02,-6.74 -560.07,-13.52 -837.45,-20.26 2.67,4.92 -227.71,551.86 -504.05,1218.95 -273.04,659.22 -594.75,1436.82 -768.1,1937.03 234.68,19.64 469.41,39.9 704.09,61.99zm1090.82 -1182.72c-152.04,203.14 -541.4,356.62 -770.78,426.59 240.03,-480.6 445.39,-703.39 642.76,-717.5 141.35,-13.52 253.36,121.51 128.02,290.91zm1272.14 -267.58c-29.33,123.95 -5.34,242.43 53.36,350.46 -386.73,61.99 -642.76,249.17 -680.11,622.95 -48.01,462.17 459.02,743.27 874.81,801.58 717.65,100.62 1330.8,-400.79 1698.85,-1093.1 -120,-14.72 -240.03,-28.87 -357.35,-42.97 -408.08,555.46 -861.48,641.36 -1120.15,600.25 -120.03,-19.64 -277.38,-107.4 -277.38,-264.52 0,-195.2 301.36,-226.5 597.42,-70.59 87.99,-167.54 176.03,-335.73 264.02,-505.13 -136,-24.57 -264.02,-47.89 -389.36,-59.52 -104.03,-34.4 -181.37,-105.58 -162.69,-187.84 39.98,-199.46 461.38,-108.64 728.07,108.65 130.69,-174.94 264.05,-351.08 397.38,-528.46 -789.41,-368.24 -1517.53,-205.62 -1626.87,268.24zm1821.57 27.01c-122.67,301.32 -242.71,600.87 -362.7,897.93 -248.06,611.92 -90.71,949.47 282.69,1048.93 410.7,115.97 976.12,-232.63 1488.19,-1117.7 -106.67,-31.89 -213.37,-63.82 -320.04,-96.36 -221.36,311.83 -594.75,701.57 -741.44,632.8 -101.32,-46.03 -101.32,-165.72 200.04,-827.97 69.32,-154.05 138.67,-308.1 210.7,-462.16 109.34,11.66 218.68,23.33 330.7,34.99 53.35,-136.89 106.67,-274.98 162.69,-414.31 -104.03,-9.8 -208.02,-19.02 -312.06,-28.21 189.36,-423.49 378.75,-853.77 570.77,-1289.54 -285.4,-11.66 -570.77,-23.95 -853.46,-34.99 -165.36,424.11 -330.69,843.31 -493.39,1257.62 -85.36,-7.36 -170.67,-14.11 -256.03,-21.47 -48.01,133.17 -96.01,265.76 -144.02,397.69 77.34,7.4 157.35,15.34 237.36,22.75z"/>
  </g>
 </g>
</svg>
