<?xml version="1.0" encoding="UTF-8"?>
<!DOCTYPE svg PUBLIC "-//W3C//DTD SVG 1.1//EN" "http://www.w3.org/Graphics/SVG/1.1/DTD/svg11.dtd">
<!-- Creator: CorelDRAW 2017 -->
<svg xmlns="http://www.w3.org/2000/svg" xml:space="preserve" width="295.5mm" height="88.089mm" version="1.1" style="shape-rendering:geometricPrecision; text-rendering:geometricPrecision; image-rendering:optimizeQuality; fill-rule:evenodd; clip-rule:evenodd"
viewBox="0 0 29550 8808.9"
 xmlns:xlink="http://www.w3.org/1999/xlink">
 <defs>
  <style type="text/css">
   <![CDATA[
    .str4 {stroke:#295174;stroke-width:100;stroke-linecap:round;stroke-linejoin:round;stroke-miterlimit:22.9256}
    .str1 {stroke:#ED3237;stroke-width:250;stroke-linecap:round;stroke-linejoin:round;stroke-miterlimit:22.9256}
    .str0 {stroke:#ED3237;stroke-width:1265.63;stroke-linecap:round;stroke-linejoin:round;stroke-miterlimit:22.9256}
    .str2 {stroke:#295174;stroke-width:843.74;stroke-linecap:round;stroke-linejoin:round;stroke-miterlimit:22.9256}
    .str3 {stroke:black;stroke-width:421.89;stroke-linecap:round;stroke-linejoin:round;stroke-miterlimit:22.9256}
    .fil0 {fill:none;fill-rule:nonzero}
    .fil2 {fill:black;fill-rule:nonzero}
    .fil1 {fill:white;fill-rule:nonzero}
   ]]>
  </style>
 </defs>
 <g id="Capa_x0020_1">
  <metadata id="CorelCorpID_0Corel-Layer"/>
  <g>
   <path class="fil0 str0" d="M3142.63 5698.92c-225.41,22.68 -403.06,-105.69 -487.46,-367.66 -84.61,-262.54 -81.7,-657.46 56.36,-1158.68 247.93,-23.98 509.98,-77.81 783.29,-162.09 808.62,-247.07 1590.8,-761.71 2099.02,-1292.93 500.44,-523.08 735.39,-1082.18 433.93,-1490.03 -171.88,-224.35 -557.87,-335.24 -972.07,-322.92 -583.21,25.3 -1178.33,273.02 -1701.77,674.98 -530.32,407.24 -1000.23,977.14 -1343.94,1597.02 -183.13,-130.33 -287.39,-320.95 -278.96,-557.62 14.09,-364.38 329.68,-690.53 800.2,-698.96 -152.15,-395.54 -304.3,-794.96 -456.44,-1200.23 -459.27,24.03 -829.91,318.17 -1065.03,731.42 -238.18,418.62 -340.92,951.2 -264.83,1422.62 87.31,546.57 411.33,951.84 884.67,1156.75 -214.11,663.31 -237.28,1259.41 -87.35,1698.17 148.71,435.28 473.35,706.08 952.34,741.78 540.97,38.23 1217.87,-268.03 1817.28,-754.1 589.6,-478.09 1104.49,-1130.19 1296.05,-1871.97 -380.34,33.73 -760.73,69.38 -1138.25,107 -22.56,413.05 -173.27,829 -402.9,1151.55 -232.42,326.48 -555.05,562.82 -924.14,595.9zm2524.48 -4104.39c73.27,186.73 -60.66,496.43 -388.82,811.77 -331.1,318.17 -864.99,652.31 -1597.51,869.53 -225.42,68.73 -459.27,110.89 -676.21,125.13 473.34,-987.49 1086.02,-1550.93 1608.77,-1801.27 519.72,-248.87 949.51,-210.07 1053.77,-5.16zm935.39 2318.66c216.98,-399.37 662.12,-389.67 540.96,-62.87 -90.13,199.71 -180.3,400.69 -267.65,601.06 -236.68,557.01 -19.81,838.01 433.92,789.13 430.94,-46.37 1003.01,-468.8 1541.15,-1370.74 -112.68,-7.78 -225.37,-15.56 -338.1,-23.34 -231.02,326.15 -625.49,766.43 -783.24,735.93 -104.26,-20.75 -90.18,-100.49 239.45,-820.21 205.69,-427.33 109.91,-738.54 -183.13,-791.71 -166.23,-26.61 -509.94,-23.34 -898.76,273.63 112.69,-256.77 225.3,-511.7 338.11,-765.11 112.56,-252.92 225.37,-503.84 338.1,-753.45 -301.51,7.13 -602.98,14.9 -904.45,22.68 2.83,7.12 -246.94,621.81 -535.31,1392.12 -292.01,780.01 -631.14,1728.66 -814.27,2346.58 256.4,-35 512.8,-70.04 769.2,-102.46 87.31,-248.33 174.46,-494.79 262.01,-740.47 87.1,-244.49 174.7,-488.24 262.01,-730.77zm2321.65 -1029c-101.43,225.66 -202.98,452.55 -304.29,679.52 -101.51,227.51 -202.86,457.79 -304.29,688.61 -225.42,533.64 -95.87,885.33 355.01,845.54 261.88,-23.08 574.77,-172.48 904.4,-485.66 5.65,260 160.58,408.3 470.52,387.1 428.2,-29.31 1000.23,-419.52 1541.19,-1266.99 -118.33,-7.12 -236.67,-15.55 -355,-23.98 -236.68,332.62 -611.41,713.86 -766.39,679.52 -107.03,-22.06 -143.67,-108.92 236.68,-773.54 152.14,-270.41 304.29,-539.5 459.26,-807.93 -290.21,8.43 -577.6,17.52 -864.95,25.95 -149.36,324.19 -298.68,649.03 -448,975.83 -233.85,380.63 -611.41,699.62 -757.91,667.2 -107.08,-20.71 -140.89,-108.92 236.67,-796.22 152.15,-277.52 304.3,-553.73 459.27,-828.68 -287.39,9.74 -574.78,21.41 -862.17,33.73zm4482.65 171.18c14.08,-163.4 -95.78,-269.74 -267.66,-280.75 -194.39,-11.67 -400.07,10.35 -749.47,240.56 39.46,-79.74 78.91,-159.52 121.16,-239.26 -298.65,5.82 -597.29,12.33 -893.15,19.45 -166.23,356.6 -335.89,714.93 -498.68,1074.4 -164.02,362.17 -329.67,726.22 -493.08,1091.26 281.74,-16.87 563.52,-33.08 848.09,-47.32 154.97,-370.89 312.72,-741.78 470.52,-1111.36 259.18,-491.52 707.19,-543.38 526.88,-111.54 -169.05,398.11 -338.1,797.53 -507.16,1198.91 270.49,-11.05 540.97,-21.4 814.24,-31.8 146.53,-389.68 293.03,-776.12 439.53,-1161.91 191.6,-455.83 622.67,-454.56 501.55,-159.52 -93,176.38 -185.96,352.72 -278.96,529.1 -236.67,485.01 -25.38,770.59 431.1,760.56 428.16,-9.37 994.58,-365.03 1535.55,-1170.99 -123.99,5.81 -247.97,11.66 -369.13,16.21 -152.15,234.05 -591.64,624.42 -746.61,585.49 -107.08,-24.64 -50.72,-169.21 245.1,-676.28 293.04,-496.02 50.72,-826.72 -301.47,-828.03 -191.6,-3.23 -540.96,49.94 -828.35,302.82zm3344.39 -302.16c-222.59,-23.99 -408.54,33.73 -648.04,199.05 112.73,-219.15 228.24,-438.96 340.93,-658.11 112.68,-219.15 228.24,-438.31 343.75,-658.11 -301.47,-0.66 -602.98,-1.31 -901.62,-1.31 2.82,6.46 -234.14,544.56 -526.89,1208.61 -293.24,665.15 -642.39,1457.61 -867.77,1972.46 222.59,-3.24 445.15,-5.2 667.74,-6.51 25.37,-67.42 56.36,-130.33 90.17,-202.94 112.69,120.63 304.29,186.73 521.24,200.36 771.98,43.43 1363.66,-442.19 1521.46,-1085.41 107.08,-442.23 -19.73,-910.38 -540.97,-968.09zm-216.94 1062.73c-191.6,347.56 -707.19,556.35 -955.16,278.83 90.18,-196.47 180.35,-374.78 278.96,-539.49 180.3,-307.98 388.81,-356.6 538.14,-351.41 290.21,15.56 295.82,337.17 138.06,612.07zm1451.02 -1054.96c-101.43,206.88 -202.86,414.36 -304.29,620.54 -101.43,206.18 -202.86,411.74 -304.3,617.26 -225.41,473.35 -95.74,812.43 355.01,823.49 262.01,6.42 574.78,-102.46 904.41,-367.01 5.65,249 160.74,406.87 470.52,420.18 428.36,18.42 1000.22,-305.4 1541.19,-1107.47 -118.34,-16.87 -236.67,-34.35 -355.01,-52.52 -236.67,312.52 -611.41,655.53 -766.38,607.56 -107.04,-31.76 -140.85,-119.32 236.67,-742.43 152.15,-257.43 304.3,-514.2 459.27,-772.89 -287.39,-8.43 -574.78,-14.9 -862.17,-22.06 -152.14,307.36 -301.46,612.76 -450.79,918.15 -233.84,348.18 -611.41,617.92 -757.9,572.53 -107.08,-29.19 -140.89,-115.39 236.67,-734.62 152.15,-254.85 304.29,-510.31 459.26,-766.42 -287.39,-5.2 -574.77,-10.4 -862.16,-14.29zm4107.91 1060.16c-95.78,-362.46 439.53,-809.2 642.39,-925.28 -135.24,-149.77 -267.65,-298.89 -400.07,-448.05 -166.23,99.87 -304.29,241.87 -408.55,394.22 -70.44,-21.37 -152.14,-34.34 -253.58,-37.58 -338.1,-7.16 -712.71,102.05 -1011.48,306.06 -298.48,203.8 -529.67,499.25 -586.03,867.56 -90.18,594.59 349.36,947.96 929.78,1002.4 757.91,79.12 1380.58,-351.41 1825.76,-1058.84 -109.91,-31.11 -219.77,-60.95 -329.67,-90.14 -371.92,544.69 -1019.92,576.46 -1191.8,542.07 -777.63,-141.99 -222.59,-1093.84 402.9,-1043.24 -39.46,177.64 -33.81,342.97 16.91,477.84 121.16,4.55 242.28,9.09 363.44,12.98zm662.12 1301.98c84.53,-223.7 160.62,-415.63 231.03,-574.49 16.9,-42.12 36.63,-79.73 56.36,-115.39 50.72,343.02 324.27,748.29 743.83,794.95 693.31,77.12 1203.09,-581.65 1535.54,-1101 -121.16,-12.32 -242.32,-23.33 -363.48,-34.38 -183.13,242.52 -476.13,544.69 -808.62,577.11 -177.49,18.13 -293,-151.74 -298.65,-226.98 380.39,-114.73 808.63,-422.75 895.98,-839.65 70.44,-340.43 -112.65,-646.03 -507.16,-668.51 -185.87,-10.56 -478.99,87.52 -695.93,276.22 115.51,-240.56 231.35,-482.35 346.57,-726.23 115.76,-244.98 231.03,-491.48 349.36,-739.81 -295.82,-7.13 -591.68,-14.29 -884.71,-21.41 2.82,5.2 -240.56,583 -532.5,1287.74 -288.45,696.42 -628.31,1517.9 -811.44,2046.34 247.93,20.75 495.9,42.16 743.82,65.49zm1152.38 -1249.47c-160.62,214.61 -571.95,376.75 -814.27,450.67 253.57,-507.73 470.52,-743.09 679.03,-757.99 149.32,-14.28 267.65,128.37 135.24,307.32zm1343.94 -282.68c-30.99,130.95 -5.65,256.12 56.36,370.24 -408.55,65.49 -679.03,263.24 -718.49,658.11 -50.71,488.25 484.93,785.21 924.18,846.82 758.15,106.3 1405.91,-423.41 1794.73,-1154.79 -126.77,-15.56 -253.58,-30.5 -377.53,-45.4 -431.1,586.81 -910.09,677.56 -1183.36,634.13 -126.8,-20.75 -293.03,-113.47 -293.03,-279.45 0,-206.22 318.37,-239.29 631.14,-74.58 92.96,-176.99 185.95,-354.68 278.91,-533.63 -143.67,-25.96 -278.91,-50.6 -411.33,-62.88 -109.9,-36.35 -191.6,-111.54 -171.88,-198.44 42.25,-210.72 487.43,-114.77 769.17,114.78 138.06,-184.81 278.95,-370.89 419.8,-558.28 -833.96,-389.03 -1603.16,-217.23 -1718.67,283.37zm1924.36 28.53c-129.59,318.34 -256.4,634.79 -383.17,948.62 -262.05,646.44 -95.82,1003.05 298.64,1108.12 433.89,122.51 1031.22,-245.76 1572.18,-1180.78 -112.69,-33.69 -225.41,-67.42 -338.1,-101.8 -233.85,329.43 -628.32,741.17 -783.29,668.51 -107.04,-48.63 -107.04,-175.07 211.34,-874.69 73.23,-162.74 146.5,-325.49 222.59,-488.24 115.51,12.32 231.02,24.64 349.36,36.96 56.36,-144.61 112.69,-290.5 171.87,-437.69 -109.9,-10.36 -219.76,-20.1 -329.67,-29.8 200.04,-447.39 400.12,-901.95 602.98,-1362.32 -301.51,-12.32 -602.98,-25.29 -901.62,-36.96 -174.7,448.05 -349.36,890.9 -521.24,1328.59 -90.17,-7.78 -180.3,-14.9 -270.48,-22.68 -50.71,140.69 -101.43,280.76 -152.14,420.14 81.7,7.81 166.22,16.21 250.75,24.02z"/>
  </g>
  <g>
   <path class="fil0 str1" d="M12270.92 7809.31c160.86,-2.99 314.67,7.94 457.14,36.96 231.06,47.12 431.15,140.65 583.96,295.99l220.89 -133.02c-155.88,-128.59 -342.06,-194.23 -543.16,-220.89 -223.76,-29.66 -470.65,-12.95 -718.83,20.96zm373.1 448.96c-220.6,-44.97 -490.43,-33.45 -777.55,9.37 -337.33,49.9 -606.74,103.1 -815.61,151.24 -201.99,46.49 -347.41,88.09 -443.3,117.36l-17.81 5.61c-112.38,30 -227.89,-36.74 -257.89,-149.13l-70.54 -264.64c-29.57,-112.39 37.55,-227.51 149.94,-257.09 43.16,-11.47 117.32,-38.47 213.76,-73.57l172.59 -62.27c16.03,-59.4 34.17,-118.97 54.08,-178.66l33.67 -96.06c-90.66,-42.02 -173.01,-92.18 -245.28,-149.64 -128.75,-102.43 -227.39,-228.24 -287.29,-373.4l-2.66 -6.04c-29.57,-70.87 -51.89,-144.49 -67.12,-219.58 -54.93,-270.25 -8.19,-536.33 112.05,-759.58 120.57,-223.76 315.31,-405.21 555.86,-505.66 58.89,-24.6 121.62,-44.55 187.52,-58.98 89.06,-26.24 188.2,9.03 239.16,91.93l333.15 541.39c179.85,-222.08 376.86,-426.68 584.72,-600.75 394.62,-330.49 832.31,-555.56 1274.73,-592.44 135.76,-11.39 254.26,-0.21 355.35,29.58l11.13 3.12c125.09,38.9 222.58,106.73 292.95,196.8 70.37,90.07 109.9,197.61 119.9,316.41 8.77,104.2 -5.82,218.11 -42.57,336.4 -42.27,137.74 -116.14,285.02 -213.59,433.98 86.44,-29.99 178.45,-45.9 275.1,-43.33 64.97,1.73 123.86,12.24 178.33,32.4 38.47,-41.21 93.31,-66.99 154.15,-66.99l521.48 0 0 0.46c30.71,0 61.93,6.71 91.46,20.97 24.55,11.86 45.73,27.85 63.15,46.7 38.56,-41.89 93.83,-68.13 155.21,-68.13l542.95 0c29.53,0.38 59.57,6.58 88.17,19.79 10.04,4.64 19.53,9.95 28.44,15.86l14.76 -4.39c102.39,-29.28 185.92,-30.5 265.49,-24.26l-0.05 0.59 2.49 0.22c64.72,5.99 125.05,23.37 178.54,51.55 82.22,43.32 147.87,109.85 189.5,197.18 13.8,28.9 24.81,60.03 32.62,93.15l88.25 -203.68c27.38,-84.67 106.9,-146.01 200.73,-146.01l351.97 0c-3.17,-40.67 5.48,-82.64 27.29,-120.66l253.84 -439.84c33.25,-72.9 106.74,-123.52 192.04,-123.52l349.69 0c50.96,0.42 102.09,18.77 142.55,56.02 85.52,78.72 91.08,211.95 12.36,297.46l-303.91 330.54 333.06 0 0 0.76c33.42,0 67.33,7.93 98.89,24.76 50.58,26.96 85.64,71.72 101.59,122.43l63.62 -113.61c55.64,-99.1 180.6,-136.52 281.77,-83.23l368.08 193.26c99.86,52.56 140.91,175.28 91.46,277.67 -4.01,8.27 24.22,58.26 57.63,117.37l0 0.84c82.9,146.73 179.59,317.88 145.38,581.34 -28.31,214.57 -134.07,395.97 -285.4,525.07 -153.6,131.07 -354.67,207.94 -568.64,209.96 -192.55,2.07 -390.57,-60.28 -541.94,-174.19l-14.47 -11.18c-166.18,110.11 -328.6,161.66 -475.87,161.66 -151.92,0 -272.41,-48.09 -360.03,-135.04l-14.39 -14.98c-33.11,20.38 -65.94,38.44 -98.46,54.21 -126.44,61.43 -248.48,89.7 -361.5,89.7 -80.84,0 -153.99,-14.56 -218.75,-42.07 -58.64,-24.89 -108.29,-59.48 -148.87,-102.68 -159.43,99.86 -314.72,144.75 -457.53,144.75 -85.3,0 -164.19,-14.43 -234.47,-42.23l-20.42 -7.77c-78.81,-34.89 -143.4,-87.28 -191.24,-155.71 -4.89,-6.16 -9.45,-12.66 -13.71,-19.49l-14.68 -25.27 -39.15 109.69c-27.13,85.17 -106.86,146.89 -201.02,146.89l-539.87 0 0 -0.46c-27.51,0.04 -55.48,-5.4 -82.39,-16.83 -12.79,-5.45 -24.73,-12.03 -35.82,-19.54 -72.77,22.83 -144.07,33.75 -213.09,33.75 -127.32,0 -239.92,-48.13 -323.45,-123.48 -16.49,10.29 -33.37,20.21 -50.62,29.53 -69.19,37.42 -146.52,67.88 -227.31,84l27.59 35.9c6.54,7.93 12.57,16.45 18.06,25.52 60.03,99.65 27.97,229.16 -71.68,289.2l-601.25 361.96c-98.47,59.28 -226.63,28.69 -287.55,-69.18 -91.84,-147.87 -246.84,-231.74 -439.51,-271.06zm400.15 -886.82c95.21,12.62 188.15,31.77 278.1,58.85 -5.99,-34.89 -9.66,-71.08 -10.89,-108.33 -4.09,-122.14 17.68,-257.51 65.18,-396.06 -202.67,167.4 -421.36,315.35 -638.42,426.35 103.19,0.08 205.5,5.9 306.03,19.19zm-1498.07 520.42c-53.88,-28.98 -94.71,-81.12 -107.12,-145.88 -7.76,-40.5 -3.29,-80.53 10.72,-116.27 17.08,-50.75 35.82,-102.55 55.77,-153.26 19.03,-48.31 41.89,-102.1 68.81,-161.03 33.45,-73.2 103.65,-118 178.79,-122.51 93.57,-6.04 188.28,-18.19 282.86,-37.34 50.12,-10.17 101,-22.49 152.55,-37.04 -55.64,12.44 -107.36,22.11 -155.54,29.49 -115.09,17.25 -222.5,-62.06 -239.75,-177.15 -8.02,-53.49 4.81,-105.34 32.44,-147.23 44.93,-78.51 91.67,-155.25 139.01,-227.85 48.64,-74.68 98,-144.87 146.64,-208.07 283.33,-367.87 560.25,-645.55 802.57,-841.43 89.19,-72.1 174.57,-133.69 254.73,-185.16 -205.28,87.33 -408.63,219.29 -602.86,381.97 -394.28,330.24 -745.95,781.26 -1003.04,1245.66 -52.61,95.39 -168.58,133.69 -266.59,91.42l-0.37 0.89c-99.27,-42.87 -183.73,-102.73 -246.84,-179.85l-0.38 0.34c-65.27,-79.86 -105.09,-175.04 -112.77,-285.4l-0.08 -1.81c-15.87,-157.95 45.18,-312.52 166.05,-431.62 41.68,-41.05 90.82,-77.88 146.51,-108.88l-144.45 -234.78c-145.54,63.16 -263.79,174.91 -337.88,312.48 -75.76,140.7 -105.34,308.14 -70.87,477.78 9.11,44.84 23.71,91.84 44,140.52l3.17 8.14c31.93,76.57 86.9,145.17 159.89,203.22 84.41,67.12 191.06,119.9 313.66,155.25 111.46,31.81 176,148.08 144.19,259.54 -2.19,7.63 -4.72,15.01 -7.67,22.19 -38.56,94.16 -73.03,184.9 -101.72,270.96l-0.25 0.72c-28.98,87.71 -53.2,172 -71.09,252.03l-5.31 19.49c112.17,-23.03 236.12,-46.49 372.22,-69.53zm1631.42 -2017.6c-201.32,162.71 -430.56,389.89 -668.88,688.33 165.71,-81.17 322.27,-185.92 463.01,-300.42 214.35,-174.4 390.48,-370.03 506.46,-539.83 22.15,-32.4 41.93,-62.23 59.1,-88.97 -100.19,50.16 -221.99,129.55 -359.69,240.89zm1665.64 613.65l-20.54 51.39c-17.47,43.62 -47.97,78.17 -85.18,100.99 1.77,14.43 2.66,29.32 2.66,44.68 0,70.66 -22.87,164.95 -59.4,259.37 29.11,-64.72 92.56,-202.63 157.95,-343.74l52.27 -112.69 -47.76 0zm-369.39 798.95c46.62,40.41 71.59,97.62 72.44,155.84 0.88,5.61 4.85,11.89 10.92,17.42 9.32,8.44 24.01,13.88 42.61,13.88 28.31,0 58.51,-4.68 90.45,-14.56 -32.86,-26.28 -57.29,-60.32 -73.79,-101.54 -15.56,-38.85 -21.89,-81.59 -19.7,-127.28l0.43 -6.2c4.05,-60.71 24.25,-134.49 56.78,-216.38l-14.3 30.46c-44.26,90.87 -102.43,181.19 -165.84,248.36zm1103.03 -577.63c14.34,4.77 28.39,11.14 41.93,19.24l2.7 1.64c60.54,-87.33 128.21,-152.42 193.6,-196.47 -7.68,-14.76 -13.54,-30.08 -17.47,-45.73l-126.43 0 -94.33 221.32zm660.19 -171.83c13.12,13.25 25.02,28.1 35.65,44.51 50.37,77.54 62.77,180.9 17.88,299.91l-6.62 15.65 -166.3 350.87c-28.23,63.91 -41.43,116.56 -41.43,157.7 0,18.6 2.53,31.68 7.17,39.1l1.9 3.13c3.21,2.91 8.35,5.94 15.23,8.98l9.24 4.35c18.65,6.16 44.17,9.36 75.89,9.36 27.38,0 56.53,-4.09 87.42,-12.57 -85.94,-60.58 -105.01,-160.56 -49.91,-327.88 26.62,-80.83 84.67,-200.81 181.19,-384.07 39.32,-74.55 59.19,-135.93 63.62,-184.32 2.41,-26.16 0,-45.56 -6.07,-58.3 -1.44,-3.04 -3.17,-5.11 -4.9,-5.99 -4.76,-2.49 -10.8,-4.22 -17.84,-5.11l-0.04 0.51c-36.96,-2.91 -74.72,-2.62 -117.16,9.49 -25.23,7.22 -53.2,18.31 -84.92,34.68zm796.54 855.52c-21.48,25.94 -42.87,50.75 -64.25,74.41 10.71,2.37 24.51,3.63 41.47,3.63 26.49,0 54.97,-3.75 85.09,-11.6 -25.82,-17.25 -47.08,-38.81 -62.31,-66.44zm164.27 -665.42l9.88 4.97 130.69 -244.56 -36.74 0 -103.83 239.59zm513.47 541.38l1.85 1.95c39.45,41.93 58.35,95.76 57.08,149.09 1.06,23.45 4.98,39.19 11.56,45.73 7.43,7.34 28.22,11.43 63.37,11.43 27.76,0 57.79,-4.77 89.85,-14.56 -77.03,-49.02 -116.31,-133.14 -79.6,-301 8.6,-39.57 25.14,-89.48 52.14,-153.44l-0.93 1.65c-55.94,95.3 -124.79,184.36 -195.32,259.15zm945.62 166.69l-11.51 13.08c68.59,35.73 149.09,54.67 228.74,53.83 112.81,-1.06 218.36,-41.18 298.39,-109.48 75.43,-64.34 128.12,-154.19 142.04,-259.79 16.2,-124.92 -42.99,-230.13 -93.95,-320.33l-0.38 0.21c-58.34,-103.19 -110.95,-196.29 -116.9,-302.48l-48.81 -25.61 -29.03 51.89c28.31,18.65 50.84,43.24 66.79,71.22 32.69,52.05 66.06,109.18 93.44,164.02 28.56,57.16 50.37,111.63 59.4,156.89l1.98 11.69c5.28,31.89 7.89,63.28 7.89,93.57 0,99.48 -27.12,193.64 -78.34,269.58 -58.89,87.2 -146.26,148.62 -258.44,168.41 -23.83,4.18 -48.34,6.45 -73.11,6.45 -65.01,0 -128.96,-14.68 -188.2,-43.15zm-705.75 -524.1c28.48,-59.82 63.87,-129.17 107.33,-209.62l114.28 -213.94 -36.83 0 -184.78 423.56z"/>
  </g>
  <g>
   <path class="fil0 str2" d="M3142.63 5698.92c-225.41,22.68 -403.06,-105.69 -487.46,-367.66 -84.61,-262.54 -81.7,-657.46 56.36,-1158.68 247.93,-23.98 509.98,-77.81 783.29,-162.09 808.62,-247.07 1590.8,-761.71 2099.02,-1292.93 500.44,-523.08 735.39,-1082.18 433.93,-1490.03 -171.88,-224.35 -557.87,-335.24 -972.07,-322.92 -583.21,25.3 -1178.33,273.02 -1701.77,674.98 -530.32,407.24 -1000.23,977.14 -1343.94,1597.02 -183.13,-130.33 -287.39,-320.95 -278.96,-557.62 14.09,-364.38 329.68,-690.53 800.2,-698.96 -152.15,-395.54 -304.3,-794.96 -456.44,-1200.23 -459.27,24.03 -829.91,318.17 -1065.03,731.42 -238.18,418.62 -340.92,951.2 -264.83,1422.62 87.31,546.57 411.33,951.84 884.67,1156.75 -214.11,663.31 -237.28,1259.41 -87.35,1698.17 148.71,435.28 473.35,706.08 952.34,741.78 540.97,38.23 1217.87,-268.03 1817.28,-754.1 589.6,-478.09 1104.49,-1130.19 1296.05,-1871.97 -380.34,33.73 -760.73,69.38 -1138.25,107 -22.56,413.05 -173.27,829 -402.9,1151.55 -232.42,326.48 -555.05,562.82 -924.14,595.9zm2524.48 -4104.39c73.27,186.73 -60.66,496.43 -388.82,811.77 -331.1,318.17 -864.99,652.31 -1597.51,869.53 -225.42,68.73 -459.27,110.89 -676.21,125.13 473.34,-987.49 1086.02,-1550.93 1608.77,-1801.27 519.72,-248.87 949.51,-210.07 1053.77,-5.16zm935.39 2318.66c216.98,-399.37 662.12,-389.67 540.96,-62.87 -90.13,199.71 -180.3,400.69 -267.65,601.06 -236.68,557.01 -19.81,838.01 433.92,789.13 430.94,-46.37 1003.01,-468.8 1541.15,-1370.74 -112.68,-7.78 -225.37,-15.56 -338.1,-23.34 -231.02,326.15 -625.49,766.43 -783.24,735.93 -104.26,-20.75 -90.18,-100.49 239.45,-820.21 205.69,-427.33 109.91,-738.54 -183.13,-791.71 -166.23,-26.61 -509.94,-23.34 -898.76,273.63 112.69,-256.77 225.3,-511.7 338.11,-765.11 112.56,-252.92 225.37,-503.84 338.1,-753.45 -301.51,7.13 -602.98,14.9 -904.45,22.68 2.83,7.12 -246.94,621.81 -535.31,1392.12 -292.01,780.01 -631.14,1728.66 -814.27,2346.58 256.4,-35 512.8,-70.04 769.2,-102.46 87.31,-248.33 174.46,-494.79 262.01,-740.47 87.1,-244.49 174.7,-488.24 262.01,-730.77zm2321.65 -1029c-101.43,225.66 -202.98,452.55 -304.29,679.52 -101.51,227.51 -202.86,457.79 -304.29,688.61 -225.42,533.64 -95.87,885.33 355.01,845.54 261.88,-23.08 574.77,-172.48 904.4,-485.66 5.65,260 160.58,408.3 470.52,387.1 428.2,-29.31 1000.23,-419.52 1541.19,-1266.99 -118.33,-7.12 -236.67,-15.55 -355,-23.98 -236.68,332.62 -611.41,713.86 -766.39,679.52 -107.03,-22.06 -143.67,-108.92 236.68,-773.54 152.14,-270.41 304.29,-539.5 459.26,-807.93 -290.21,8.43 -577.6,17.52 -864.95,25.95 -149.36,324.19 -298.68,649.03 -448,975.83 -233.85,380.63 -611.41,699.62 -757.91,667.2 -107.08,-20.71 -140.89,-108.92 236.67,-796.22 152.15,-277.52 304.3,-553.73 459.27,-828.68 -287.39,9.74 -574.78,21.41 -862.17,33.73zm4482.65 171.18c14.08,-163.4 -95.78,-269.74 -267.66,-280.75 -194.39,-11.67 -400.07,10.35 -749.47,240.56 39.46,-79.74 78.91,-159.52 121.16,-239.26 -298.65,5.82 -597.29,12.33 -893.15,19.45 -166.23,356.6 -335.89,714.93 -498.68,1074.4 -164.02,362.17 -329.67,726.22 -493.08,1091.26 281.74,-16.87 563.52,-33.08 848.09,-47.32 154.97,-370.89 312.72,-741.78 470.52,-1111.36 259.18,-491.52 707.19,-543.38 526.88,-111.54 -169.05,398.11 -338.1,797.53 -507.16,1198.91 270.49,-11.05 540.97,-21.4 814.24,-31.8 146.53,-389.68 293.03,-776.12 439.53,-1161.91 191.6,-455.83 622.67,-454.56 501.55,-159.52 -93,176.38 -185.96,352.72 -278.96,529.1 -236.67,485.01 -25.38,770.59 431.1,760.56 428.16,-9.37 994.58,-365.03 1535.55,-1170.99 -123.99,5.81 -247.97,11.66 -369.13,16.21 -152.15,234.05 -591.64,624.42 -746.61,585.49 -107.08,-24.64 -50.72,-169.21 245.1,-676.28 293.04,-496.02 50.72,-826.72 -301.47,-828.03 -191.6,-3.23 -540.96,49.94 -828.35,302.82zm3344.39 -302.16c-222.59,-23.99 -408.54,33.73 -648.04,199.05 112.73,-219.15 228.24,-438.96 340.93,-658.11 112.68,-219.15 228.24,-438.31 343.75,-658.11 -301.47,-0.66 -602.98,-1.31 -901.62,-1.31 2.82,6.46 -234.14,544.56 -526.89,1208.61 -293.24,665.15 -642.39,1457.61 -867.77,1972.46 222.59,-3.24 445.15,-5.2 667.74,-6.51 25.37,-67.42 56.36,-130.33 90.17,-202.94 112.69,120.63 304.29,186.73 521.24,200.36 771.98,43.43 1363.66,-442.19 1521.46,-1085.41 107.08,-442.23 -19.73,-910.38 -540.97,-968.09zm-216.94 1062.73c-191.6,347.56 -707.19,556.35 -955.16,278.83 90.18,-196.47 180.35,-374.78 278.96,-539.49 180.3,-307.98 388.81,-356.6 538.14,-351.41 290.21,15.56 295.82,337.17 138.06,612.07zm1451.02 -1054.96c-101.43,206.88 -202.86,414.36 -304.29,620.54 -101.43,206.18 -202.86,411.74 -304.3,617.26 -225.41,473.35 -95.74,812.43 355.01,823.49 262.01,6.42 574.78,-102.46 904.41,-367.01 5.65,249 160.74,406.87 470.52,420.18 428.36,18.42 1000.22,-305.4 1541.19,-1107.47 -118.34,-16.87 -236.67,-34.35 -355.01,-52.52 -236.67,312.52 -611.41,655.53 -766.38,607.56 -107.04,-31.76 -140.85,-119.32 236.67,-742.43 152.15,-257.43 304.3,-514.2 459.27,-772.89 -287.39,-8.43 -574.78,-14.9 -862.17,-22.06 -152.14,307.36 -301.46,612.76 -450.79,918.15 -233.84,348.18 -611.41,617.92 -757.9,572.53 -107.08,-29.19 -140.89,-115.39 236.67,-734.62 152.15,-254.85 304.29,-510.31 459.26,-766.42 -287.39,-5.2 -574.77,-10.4 -862.16,-14.29zm4107.91 1060.16c-95.78,-362.46 439.53,-809.2 642.39,-925.28 -135.24,-149.77 -267.65,-298.89 -400.07,-448.05 -166.23,99.87 -304.29,241.87 -408.55,394.22 -70.44,-21.37 -152.14,-34.34 -253.58,-37.58 -338.1,-7.16 -712.71,102.05 -1011.48,306.06 -298.48,203.8 -529.67,499.25 -586.03,867.56 -90.18,594.59 349.36,947.96 929.78,1002.4 757.91,79.12 1380.58,-351.41 1825.76,-1058.84 -109.91,-31.11 -219.77,-60.95 -329.67,-90.14 -371.92,544.69 -1019.92,576.46 -1191.8,542.07 -777.63,-141.99 -222.59,-1093.84 402.9,-1043.24 -39.46,177.64 -33.81,342.97 16.91,477.84 121.16,4.55 242.28,9.09 363.44,12.98zm662.12 1301.98c84.53,-223.7 160.62,-415.63 231.03,-574.49 16.9,-42.12 36.63,-79.73 56.36,-115.39 50.72,343.02 324.27,748.29 743.83,794.95 693.31,77.12 1203.09,-581.65 1535.54,-1101 -121.16,-12.32 -242.32,-23.33 -363.48,-34.38 -183.13,242.52 -476.13,544.69 -808.62,577.11 -177.49,18.13 -293,-151.74 -298.65,-226.98 380.39,-114.73 808.63,-422.75 895.98,-839.65 70.44,-340.43 -112.65,-646.03 -507.16,-668.51 -185.87,-10.56 -478.99,87.52 -695.93,276.22 115.51,-240.56 231.35,-482.35 346.57,-726.23 115.76,-244.98 231.03,-491.48 349.36,-739.81 -295.82,-7.13 -591.68,-14.29 -884.71,-21.41 2.82,5.2 -240.56,583 -532.5,1287.74 -288.45,696.42 -628.31,1517.9 -811.44,2046.34 247.93,20.75 495.9,42.16 743.82,65.49zm1152.38 -1249.47c-160.62,214.61 -571.95,376.75 -814.27,450.67 253.57,-507.73 470.52,-743.09 679.03,-757.99 149.32,-14.28 267.65,128.37 135.24,307.32zm1343.94 -282.68c-30.99,130.95 -5.65,256.12 56.36,370.24 -408.55,65.49 -679.03,263.24 -718.49,658.11 -50.71,488.25 484.93,785.21 924.18,846.82 758.15,106.3 1405.91,-423.41 1794.73,-1154.79 -126.77,-15.56 -253.58,-30.5 -377.53,-45.4 -431.1,586.81 -910.09,677.56 -1183.36,634.13 -126.8,-20.75 -293.03,-113.47 -293.03,-279.45 0,-206.22 318.37,-239.29 631.14,-74.58 92.96,-176.99 185.95,-354.68 278.91,-533.63 -143.67,-25.96 -278.91,-50.6 -411.33,-62.88 -109.9,-36.35 -191.6,-111.54 -171.88,-198.44 42.25,-210.72 487.43,-114.77 769.17,114.78 138.06,-184.81 278.95,-370.89 419.8,-558.28 -833.96,-389.03 -1603.16,-217.23 -1718.67,283.37zm1924.36 28.53c-129.59,318.34 -256.4,634.79 -383.17,948.62 -262.05,646.44 -95.82,1003.05 298.64,1108.12 433.89,122.51 1031.22,-245.76 1572.18,-1180.78 -112.69,-33.69 -225.41,-67.42 -338.1,-101.8 -233.85,329.43 -628.32,741.17 -783.29,668.51 -107.04,-48.63 -107.04,-175.07 211.34,-874.69 73.23,-162.74 146.5,-325.49 222.59,-488.24 115.51,12.32 231.02,24.64 349.36,36.96 56.36,-144.61 112.69,-290.5 171.87,-437.69 -109.9,-10.36 -219.76,-20.1 -329.67,-29.8 200.04,-447.39 400.12,-901.95 602.98,-1362.32 -301.51,-12.32 -602.98,-25.29 -901.62,-36.96 -174.7,448.05 -349.36,890.9 -521.24,1328.59 -90.17,-7.78 -180.3,-14.9 -270.48,-22.68 -50.71,140.69 -101.43,280.76 -152.14,420.14 81.7,7.81 166.22,16.21 250.75,24.02z"/>
   <path id="1" class="fil1" d="M3142.63 5698.92c-225.41,22.68 -403.06,-105.69 -487.46,-367.66 -84.61,-262.54 -81.7,-657.46 56.36,-1158.68 247.93,-23.98 509.98,-77.81 783.29,-162.09 808.62,-247.07 1590.8,-761.71 2099.02,-1292.93 500.44,-523.08 735.39,-1082.18 433.93,-1490.03 -171.88,-224.35 -557.87,-335.24 -972.07,-322.92 -583.21,25.3 -1178.33,273.02 -1701.77,674.98 -530.32,407.24 -1000.23,977.14 -1343.94,1597.02 -183.13,-130.33 -287.39,-320.95 -278.96,-557.62 14.09,-364.38 329.68,-690.53 800.2,-698.96 -152.15,-395.54 -304.3,-794.96 -456.44,-1200.23 -459.27,24.03 -829.91,318.17 -1065.03,731.42 -238.18,418.62 -340.92,951.2 -264.83,1422.62 87.31,546.57 411.33,951.84 884.67,1156.75 -214.11,663.31 -237.28,1259.41 -87.35,1698.17 148.71,435.28 473.35,706.08 952.34,741.78 540.97,38.23 1217.87,-268.03 1817.28,-754.1 589.6,-478.09 1104.49,-1130.19 1296.05,-1871.97 -380.34,33.73 -760.73,69.38 -1138.25,107 -22.56,413.05 -173.27,829 -402.9,1151.55 -232.42,326.48 -555.05,562.82 -924.14,595.9zm2524.48 -4104.39c73.27,186.73 -60.66,496.43 -388.82,811.77 -331.1,318.17 -864.99,652.31 -1597.51,869.53 -225.42,68.73 -459.27,110.89 -676.21,125.13 473.34,-987.49 1086.02,-1550.93 1608.77,-1801.27 519.72,-248.87 949.51,-210.07 1053.77,-5.16zm935.39 2318.66c216.98,-399.37 662.12,-389.67 540.96,-62.87 -90.13,199.71 -180.3,400.69 -267.65,601.06 -236.68,557.01 -19.81,838.01 433.92,789.13 430.94,-46.37 1003.01,-468.8 1541.15,-1370.74 -112.68,-7.78 -225.37,-15.56 -338.1,-23.34 -231.02,326.15 -625.49,766.43 -783.24,735.93 -104.26,-20.75 -90.18,-100.49 239.45,-820.21 205.69,-427.33 109.91,-738.54 -183.13,-791.71 -166.23,-26.61 -509.94,-23.34 -898.76,273.63 112.69,-256.77 225.3,-511.7 338.11,-765.11 112.56,-252.92 225.37,-503.84 338.1,-753.45 -301.51,7.13 -602.98,14.9 -904.45,22.68 2.83,7.12 -246.94,621.81 -535.31,1392.12 -292.01,780.01 -631.14,1728.66 -814.27,2346.58 256.4,-35 512.8,-70.04 769.2,-102.46 87.31,-248.33 174.46,-494.79 262.01,-740.47 87.1,-244.49 174.7,-488.24 262.01,-730.77zm2321.65 -1029c-101.43,225.66 -202.98,452.55 -304.29,679.52 -101.51,227.51 -202.86,457.79 -304.29,688.61 -225.42,533.64 -95.87,885.33 355.01,845.54 261.88,-23.08 574.77,-172.48 904.4,-485.66 5.65,260 160.58,408.3 470.52,387.1 428.2,-29.31 1000.23,-419.52 1541.19,-1266.99 -118.33,-7.12 -236.67,-15.55 -355,-23.98 -236.68,332.62 -611.41,713.86 -766.39,679.52 -107.03,-22.06 -143.67,-108.92 236.68,-773.54 152.14,-270.41 304.29,-539.5 459.26,-807.93 -290.21,8.43 -577.6,17.52 -864.95,25.95 -149.36,324.19 -298.68,649.03 -448,975.83 -233.85,380.63 -611.41,699.62 -757.91,667.2 -107.08,-20.71 -140.89,-108.92 236.67,-796.22 152.15,-277.52 304.3,-553.73 459.27,-828.68 -287.39,9.74 -574.78,21.41 -862.17,33.73zm4482.65 171.18c14.08,-163.4 -95.78,-269.74 -267.66,-280.75 -194.39,-11.67 -400.07,10.35 -749.47,240.56 39.46,-79.74 78.91,-159.52 121.16,-239.26 -298.65,5.82 -597.29,12.33 -893.15,19.45 -166.23,356.6 -335.89,714.93 -498.68,1074.4 -164.02,362.17 -329.67,726.22 -493.08,1091.26 281.74,-16.87 563.52,-33.08 848.09,-47.32 154.97,-370.89 312.72,-741.78 470.52,-1111.36 259.18,-491.52 707.19,-543.38 526.88,-111.54 -169.05,398.11 -338.1,797.53 -507.16,1198.91 270.49,-11.05 540.97,-21.4 814.24,-31.8 146.53,-389.68 293.03,-776.12 439.53,-1161.91 191.6,-455.83 622.67,-454.56 501.55,-159.52 -93,176.38 -185.96,352.72 -278.96,529.1 -236.67,485.01 -25.38,770.59 431.1,760.56 428.16,-9.37 994.58,-365.03 1535.55,-1170.99 -123.99,5.81 -247.97,11.66 -369.13,16.21 -152.15,234.05 -591.64,624.42 -746.61,585.49 -107.08,-24.64 -50.72,-169.21 245.1,-676.28 293.04,-496.02 50.72,-826.72 -301.47,-828.03 -191.6,-3.23 -540.96,49.94 -828.35,302.82zm3344.39 -302.16c-222.59,-23.99 -408.54,33.73 -648.04,199.05 112.73,-219.15 228.24,-438.96 340.93,-658.11 112.68,-219.15 228.24,-438.31 343.75,-658.11 -301.47,-0.66 -602.98,-1.31 -901.62,-1.31 2.82,6.46 -234.14,544.56 -526.89,1208.61 -293.24,665.15 -642.39,1457.61 -867.77,1972.46 222.59,-3.24 445.15,-5.2 667.74,-6.51 25.37,-67.42 56.36,-130.33 90.17,-202.94 112.69,120.63 304.29,186.73 521.24,200.36 771.98,43.43 1363.66,-442.19 1521.46,-1085.41 107.08,-442.23 -19.73,-910.38 -540.97,-968.09zm-216.94 1062.73c-191.6,347.56 -707.19,556.35 -955.16,278.83 90.18,-196.47 180.35,-374.78 278.96,-539.49 180.3,-307.98 388.81,-356.6 538.14,-351.41 290.21,15.56 295.82,337.17 138.06,612.07zm1451.02 -1054.96c-101.43,206.88 -202.86,414.36 -304.29,620.54 -101.43,206.18 -202.86,411.74 -304.3,617.26 -225.41,473.35 -95.74,812.43 355.01,823.49 262.01,6.42 574.78,-102.46 904.41,-367.01 5.65,249 160.74,406.87 470.52,420.18 428.36,18.42 1000.22,-305.4 1541.19,-1107.47 -118.34,-16.87 -236.67,-34.35 -355.01,-52.52 -236.67,312.52 -611.41,655.53 -766.38,607.56 -107.04,-31.76 -140.85,-119.32 236.67,-742.43 152.15,-257.43 304.3,-514.2 459.27,-772.89 -287.39,-8.43 -574.78,-14.9 -862.17,-22.06 -152.14,307.36 -301.46,612.76 -450.79,918.15 -233.84,348.18 -611.41,617.92 -757.9,572.53 -107.08,-29.19 -140.89,-115.39 236.67,-734.62 152.15,-254.85 304.29,-510.31 459.26,-766.42 -287.39,-5.2 -574.77,-10.4 -862.16,-14.29zm4107.91 1060.16c-95.78,-362.46 439.53,-809.2 642.39,-925.28 -135.24,-149.77 -267.65,-298.89 -400.07,-448.05 -166.23,99.87 -304.29,241.87 -408.55,394.22 -70.44,-21.37 -152.14,-34.34 -253.58,-37.58 -338.1,-7.16 -712.71,102.05 -1011.48,306.06 -298.48,203.8 -529.67,499.25 -586.03,867.56 -90.18,594.59 349.36,947.96 929.78,1002.4 757.91,79.12 1380.58,-351.41 1825.76,-1058.84 -109.91,-31.11 -219.77,-60.95 -329.67,-90.14 -371.92,544.69 -1019.92,576.46 -1191.8,542.07 -777.63,-141.99 -222.59,-1093.84 402.9,-1043.24 -39.46,177.64 -33.81,342.97 16.91,477.84 121.16,4.55 242.28,9.09 363.44,12.98zm662.12 1301.98c84.53,-223.7 160.62,-415.63 231.03,-574.49 16.9,-42.12 36.63,-79.73 56.36,-115.39 50.72,343.02 324.27,748.29 743.83,794.95 693.31,77.12 1203.09,-581.65 1535.54,-1101 -121.16,-12.32 -242.32,-23.33 -363.48,-34.38 -183.13,242.52 -476.13,544.69 -808.62,577.11 -177.49,18.13 -293,-151.74 -298.65,-226.98 380.39,-114.73 808.63,-422.75 895.98,-839.65 70.44,-340.43 -112.65,-646.03 -507.16,-668.51 -185.87,-10.56 -478.99,87.52 -695.93,276.22 115.51,-240.56 231.35,-482.35 346.57,-726.23 115.76,-244.98 231.03,-491.48 349.36,-739.81 -295.82,-7.13 -591.68,-14.29 -884.71,-21.41 2.82,5.2 -240.56,583 -532.5,1287.74 -288.45,696.42 -628.31,1517.9 -811.44,2046.34 247.93,20.75 495.9,42.16 743.82,65.49zm1152.38 -1249.47c-160.62,214.61 -571.95,376.75 -814.27,450.67 253.57,-507.73 470.52,-743.09 679.03,-757.99 149.32,-14.28 267.65,128.37 135.24,307.32zm1343.94 -282.68c-30.99,130.95 -5.65,256.12 56.36,370.24 -408.55,65.49 -679.03,263.24 -718.49,658.11 -50.71,488.25 484.93,785.21 924.18,846.82 758.15,106.3 1405.91,-423.41 1794.73,-1154.79 -126.77,-15.56 -253.58,-30.5 -377.53,-45.4 -431.1,586.81 -910.09,677.56 -1183.36,634.13 -126.8,-20.75 -293.03,-113.47 -293.03,-279.45 0,-206.22 318.37,-239.29 631.14,-74.58 92.96,-176.99 185.95,-354.68 278.91,-533.63 -143.67,-25.96 -278.91,-50.6 -411.33,-62.88 -109.9,-36.35 -191.6,-111.54 -171.88,-198.44 42.25,-210.72 487.43,-114.77 769.17,114.78 138.06,-184.81 278.95,-370.89 419.8,-558.28 -833.96,-389.03 -1603.16,-217.23 -1718.67,283.37zm1924.36 28.53c-129.59,318.34 -256.4,634.79 -383.17,948.62 -262.05,646.44 -95.82,1003.05 298.64,1108.12 433.89,122.51 1031.22,-245.76 1572.18,-1180.78 -112.69,-33.69 -225.41,-67.42 -338.1,-101.8 -233.85,329.43 -628.32,741.17 -783.29,668.51 -107.04,-48.63 -107.04,-175.07 211.34,-874.69 73.23,-162.74 146.5,-325.49 222.59,-488.24 115.51,12.32 231.02,24.64 349.36,36.96 56.36,-144.61 112.69,-290.5 171.87,-437.69 -109.9,-10.36 -219.76,-20.1 -329.67,-29.8 200.04,-447.39 400.12,-901.95 602.98,-1362.32 -301.51,-12.32 -602.98,-25.29 -901.62,-36.96 -174.7,448.05 -349.36,890.9 -521.24,1328.59 -90.17,-7.78 -180.3,-14.9 -270.48,-22.68 -50.71,140.69 -101.43,280.76 -152.14,420.14 81.7,7.81 166.22,16.21 250.75,24.02z"/>
  </g>
  <g>
   <path class="fil0 str3" d="M3142.63 5698.92c-225.41,22.68 -403.06,-105.69 -487.46,-367.66 -84.61,-262.54 -81.7,-657.46 56.36,-1158.68 247.93,-23.98 509.98,-77.81 783.29,-162.09 808.62,-247.07 1590.8,-761.71 2099.02,-1292.93 500.44,-523.08 735.39,-1082.18 433.93,-1490.03 -171.88,-224.35 -557.87,-335.24 -972.07,-322.92 -583.21,25.3 -1178.33,273.02 -1701.77,674.98 -530.32,407.24 -1000.23,977.14 -1343.94,1597.02 -183.13,-130.33 -287.39,-320.95 -278.96,-557.62 14.09,-364.38 329.68,-690.53 800.2,-698.96 -152.15,-395.54 -304.3,-794.96 -456.44,-1200.23 -459.27,24.03 -829.91,318.17 -1065.03,731.42 -238.18,418.62 -340.92,951.2 -264.83,1422.62 87.31,546.57 411.33,951.84 884.67,1156.75 -214.11,663.31 -237.28,1259.41 -87.35,1698.17 148.71,435.28 473.35,706.08 952.34,741.78 540.97,38.23 1217.87,-268.03 1817.28,-754.1 589.6,-478.09 1104.49,-1130.19 1296.05,-1871.97 -380.34,33.73 -760.73,69.38 -1138.25,107 -22.56,413.05 -173.27,829 -402.9,1151.55 -232.42,326.48 -555.05,562.82 -924.14,595.9zm2524.48 -4104.39c73.27,186.73 -60.66,496.43 -388.82,811.77 -331.1,318.17 -864.99,652.31 -1597.51,869.53 -225.42,68.73 -459.27,110.89 -676.21,125.13 473.34,-987.49 1086.02,-1550.93 1608.77,-1801.27 519.72,-248.87 949.51,-210.07 1053.77,-5.16zm935.39 2318.66c216.98,-399.37 662.12,-389.67 540.96,-62.87 -90.13,199.71 -180.3,400.69 -267.65,601.06 -236.68,557.01 -19.81,838.01 433.92,789.13 430.94,-46.37 1003.01,-468.8 1541.15,-1370.74 -112.68,-7.78 -225.37,-15.56 -338.1,-23.34 -231.02,326.15 -625.49,766.43 -783.24,735.93 -104.26,-20.75 -90.18,-100.49 239.45,-820.21 205.69,-427.33 109.91,-738.54 -183.13,-791.71 -166.23,-26.61 -509.94,-23.34 -898.76,273.63 112.69,-256.77 225.3,-511.7 338.11,-765.11 112.56,-252.92 225.37,-503.84 338.1,-753.45 -301.51,7.13 -602.98,14.9 -904.45,22.68 2.83,7.12 -246.94,621.81 -535.31,1392.12 -292.01,780.01 -631.14,1728.66 -814.27,2346.58 256.4,-35 512.8,-70.04 769.2,-102.46 87.31,-248.33 174.46,-494.79 262.01,-740.47 87.1,-244.49 174.7,-488.24 262.01,-730.77zm2321.65 -1029c-101.43,225.66 -202.98,452.55 -304.29,679.52 -101.51,227.51 -202.86,457.79 -304.29,688.61 -225.42,533.64 -95.87,885.33 355.01,845.54 261.88,-23.08 574.77,-172.48 904.4,-485.66 5.65,260 160.58,408.3 470.52,387.1 428.2,-29.31 1000.23,-419.52 1541.19,-1266.99 -118.33,-7.12 -236.67,-15.55 -355,-23.98 -236.68,332.62 -611.41,713.86 -766.39,679.52 -107.03,-22.06 -143.67,-108.92 236.68,-773.54 152.14,-270.41 304.29,-539.5 459.26,-807.93 -290.21,8.43 -577.6,17.52 -864.95,25.95 -149.36,324.19 -298.68,649.03 -448,975.83 -233.85,380.63 -611.41,699.62 -757.91,667.2 -107.08,-20.71 -140.89,-108.92 236.67,-796.22 152.15,-277.52 304.3,-553.73 459.27,-828.68 -287.39,9.74 -574.78,21.41 -862.17,33.73zm4482.65 171.18c14.08,-163.4 -95.78,-269.74 -267.66,-280.75 -194.39,-11.67 -400.07,10.35 -749.47,240.56 39.46,-79.74 78.91,-159.52 121.16,-239.26 -298.65,5.82 -597.29,12.33 -893.15,19.45 -166.23,356.6 -335.89,714.93 -498.68,1074.4 -164.02,362.17 -329.67,726.22 -493.08,1091.26 281.74,-16.87 563.52,-33.08 848.09,-47.32 154.97,-370.89 312.72,-741.78 470.52,-1111.36 259.18,-491.52 707.19,-543.38 526.88,-111.54 -169.05,398.11 -338.1,797.53 -507.16,1198.91 270.49,-11.05 540.97,-21.4 814.24,-31.8 146.53,-389.68 293.03,-776.12 439.53,-1161.91 191.6,-455.83 622.67,-454.56 501.55,-159.52 -93,176.38 -185.96,352.72 -278.96,529.1 -236.67,485.01 -25.38,770.59 431.1,760.56 428.16,-9.37 994.58,-365.03 1535.55,-1170.99 -123.99,5.81 -247.97,11.66 -369.13,16.21 -152.15,234.05 -591.64,624.42 -746.61,585.49 -107.08,-24.64 -50.72,-169.21 245.1,-676.28 293.04,-496.02 50.72,-826.72 -301.47,-828.03 -191.6,-3.23 -540.96,49.94 -828.35,302.82zm3344.39 -302.16c-222.59,-23.99 -408.54,33.73 -648.04,199.05 112.73,-219.15 228.24,-438.96 340.93,-658.11 112.68,-219.15 228.24,-438.31 343.75,-658.11 -301.47,-0.66 -602.98,-1.31 -901.62,-1.31 2.82,6.46 -234.14,544.56 -526.89,1208.61 -293.24,665.15 -642.39,1457.61 -867.77,1972.46 222.59,-3.24 445.15,-5.2 667.74,-6.51 25.37,-67.42 56.36,-130.33 90.17,-202.94 112.69,120.63 304.29,186.73 521.24,200.36 771.98,43.43 1363.66,-442.19 1521.46,-1085.41 107.08,-442.23 -19.73,-910.38 -540.97,-968.09zm-216.94 1062.73c-191.6,347.56 -707.19,556.35 -955.16,278.83 90.18,-196.47 180.35,-374.78 278.96,-539.49 180.3,-307.98 388.81,-356.6 538.14,-351.41 290.21,15.56 295.82,337.17 138.06,612.07zm1451.02 -1054.96c-101.43,206.88 -202.86,414.36 -304.29,620.54 -101.43,206.18 -202.86,411.74 -304.3,617.26 -225.41,473.35 -95.74,812.43 355.01,823.49 262.01,6.42 574.78,-102.46 904.41,-367.01 5.65,249 160.74,406.87 470.52,420.18 428.36,18.42 1000.22,-305.4 1541.19,-1107.47 -118.34,-16.87 -236.67,-34.35 -355.01,-52.52 -236.67,312.52 -611.41,655.53 -766.38,607.56 -107.04,-31.76 -140.85,-119.32 236.67,-742.43 152.15,-257.43 304.3,-514.2 459.27,-772.89 -287.39,-8.43 -574.78,-14.9 -862.17,-22.06 -152.14,307.36 -301.46,612.76 -450.79,918.15 -233.84,348.18 -611.41,617.92 -757.9,572.53 -107.08,-29.19 -140.89,-115.39 236.67,-734.62 152.15,-254.85 304.29,-510.31 459.26,-766.42 -287.39,-5.2 -574.77,-10.4 -862.16,-14.29zm4107.91 1060.16c-95.78,-362.46 439.53,-809.2 642.39,-925.28 -135.24,-149.77 -267.65,-298.89 -400.07,-448.05 -166.23,99.87 -304.29,241.87 -408.55,394.22 -70.44,-21.37 -152.14,-34.34 -253.58,-37.58 -338.1,-7.16 -712.71,102.05 -1011.48,306.06 -298.48,203.8 -529.67,499.25 -586.03,867.56 -90.18,594.59 349.36,947.96 929.78,1002.4 757.91,79.12 1380.58,-351.41 1825.76,-1058.84 -109.91,-31.11 -219.77,-60.95 -329.67,-90.14 -371.92,544.69 -1019.92,576.46 -1191.8,542.07 -777.63,-141.99 -222.59,-1093.84 402.9,-1043.24 -39.46,177.64 -33.81,342.97 16.91,477.84 121.16,4.55 242.28,9.09 363.44,12.98zm662.12 1301.98c84.53,-223.7 160.62,-415.63 231.03,-574.49 16.9,-42.12 36.63,-79.73 56.36,-115.39 50.72,343.02 324.27,748.29 743.83,794.95 693.31,77.12 1203.09,-581.65 1535.54,-1101 -121.16,-12.32 -242.32,-23.33 -363.48,-34.38 -183.13,242.52 -476.13,544.69 -808.62,577.11 -177.49,18.13 -293,-151.74 -298.65,-226.98 380.39,-114.73 808.63,-422.75 895.98,-839.65 70.44,-340.43 -112.65,-646.03 -507.16,-668.51 -185.87,-10.56 -478.99,87.52 -695.93,276.22 115.51,-240.56 231.35,-482.35 346.57,-726.23 115.76,-244.98 231.03,-491.48 349.36,-739.81 -295.82,-7.13 -591.68,-14.29 -884.71,-21.41 2.82,5.2 -240.56,583 -532.5,1287.74 -288.45,696.42 -628.31,1517.9 -811.44,2046.34 247.93,20.75 495.9,42.16 743.82,65.49zm1152.38 -1249.47c-160.62,214.61 -571.95,376.75 -814.27,450.67 253.57,-507.73 470.52,-743.09 679.03,-757.99 149.32,-14.28 267.65,128.37 135.24,307.32zm1343.94 -282.68c-30.99,130.95 -5.65,256.12 56.36,370.24 -408.55,65.49 -679.03,263.24 -718.49,658.11 -50.71,488.25 484.93,785.21 924.18,846.82 758.15,106.3 1405.91,-423.41 1794.73,-1154.79 -126.77,-15.56 -253.58,-30.5 -377.53,-45.4 -431.1,586.81 -910.09,677.56 -1183.36,634.13 -126.8,-20.75 -293.03,-113.47 -293.03,-279.45 0,-206.22 318.37,-239.29 631.14,-74.58 92.96,-176.99 185.95,-354.68 278.91,-533.63 -143.67,-25.96 -278.91,-50.6 -411.33,-62.88 -109.9,-36.35 -191.6,-111.54 -171.88,-198.44 42.25,-210.72 487.43,-114.77 769.17,114.78 138.06,-184.81 278.95,-370.89 419.8,-558.28 -833.96,-389.03 -1603.16,-217.23 -1718.67,283.37zm1924.36 28.53c-129.59,318.34 -256.4,634.79 -383.17,948.62 -262.05,646.44 -95.82,1003.05 298.64,1108.12 433.89,122.51 1031.22,-245.76 1572.18,-1180.78 -112.69,-33.69 -225.41,-67.42 -338.1,-101.8 -233.85,329.43 -628.32,741.17 -783.29,668.51 -107.04,-48.63 -107.04,-175.07 211.34,-874.69 73.23,-162.74 146.5,-325.49 222.59,-488.24 115.51,12.32 231.02,24.64 349.36,36.96 56.36,-144.61 112.69,-290.5 171.87,-437.69 -109.9,-10.36 -219.76,-20.1 -329.67,-29.8 200.04,-447.39 400.12,-901.95 602.98,-1362.32 -301.51,-12.32 -602.98,-25.29 -901.62,-36.96 -174.7,448.05 -349.36,890.9 -521.24,1328.59 -90.17,-7.78 -180.3,-14.9 -270.48,-22.68 -50.71,140.69 -101.43,280.76 -152.14,420.14 81.7,7.81 166.22,16.21 250.75,24.02z"/>
   <path id="1" class="fil1" d="M3142.63 5698.92c-225.41,22.68 -403.06,-105.69 -487.46,-367.66 -84.61,-262.54 -81.7,-657.46 56.36,-1158.68 247.93,-23.98 509.98,-77.81 783.29,-162.09 808.62,-247.07 1590.8,-761.71 2099.02,-1292.93 500.44,-523.08 735.39,-1082.18 433.93,-1490.03 -171.88,-224.35 -557.87,-335.24 -972.07,-322.92 -583.21,25.3 -1178.33,273.02 -1701.77,674.98 -530.32,407.24 -1000.23,977.14 -1343.94,1597.02 -183.13,-130.33 -287.39,-320.95 -278.96,-557.62 14.09,-364.38 329.68,-690.53 800.2,-698.96 -152.15,-395.54 -304.3,-794.96 -456.44,-1200.23 -459.27,24.03 -829.91,318.17 -1065.03,731.42 -238.18,418.62 -340.92,951.2 -264.83,1422.62 87.31,546.57 411.33,951.84 884.67,1156.75 -214.11,663.31 -237.28,1259.41 -87.35,1698.17 148.71,435.28 473.35,706.08 952.34,741.78 540.97,38.23 1217.87,-268.03 1817.28,-754.1 589.6,-478.09 1104.49,-1130.19 1296.05,-1871.97 -380.34,33.73 -760.73,69.38 -1138.25,107 -22.56,413.05 -173.27,829 -402.9,1151.55 -232.42,326.48 -555.05,562.82 -924.14,595.9zm2524.48 -4104.39c73.27,186.73 -60.66,496.43 -388.82,811.77 -331.1,318.17 -864.99,652.31 -1597.51,869.53 -225.42,68.73 -459.27,110.89 -676.21,125.13 473.34,-987.49 1086.02,-1550.93 1608.77,-1801.27 519.72,-248.87 949.51,-210.07 1053.77,-5.16zm935.39 2318.66c216.98,-399.37 662.12,-389.67 540.96,-62.87 -90.13,199.71 -180.3,400.69 -267.65,601.06 -236.68,557.01 -19.81,838.01 433.92,789.13 430.94,-46.37 1003.01,-468.8 1541.15,-1370.74 -112.68,-7.78 -225.37,-15.56 -338.1,-23.34 -231.02,326.15 -625.49,766.43 -783.24,735.93 -104.26,-20.75 -90.18,-100.49 239.45,-820.21 205.69,-427.33 109.91,-738.54 -183.13,-791.71 -166.23,-26.61 -509.94,-23.34 -898.76,273.63 112.69,-256.77 225.3,-511.7 338.11,-765.11 112.56,-252.92 225.37,-503.84 338.1,-753.45 -301.51,7.13 -602.98,14.9 -904.45,22.68 2.83,7.12 -246.94,621.81 -535.31,1392.12 -292.01,780.01 -631.14,1728.66 -814.27,2346.58 256.4,-35 512.8,-70.04 769.2,-102.46 87.31,-248.33 174.46,-494.79 262.01,-740.47 87.1,-244.49 174.7,-488.24 262.01,-730.77zm2321.65 -1029c-101.43,225.66 -202.98,452.55 -304.29,679.52 -101.51,227.51 -202.86,457.79 -304.29,688.61 -225.42,533.64 -95.87,885.33 355.01,845.54 261.88,-23.08 574.77,-172.48 904.4,-485.66 5.65,260 160.58,408.3 470.52,387.1 428.2,-29.31 1000.23,-419.52 1541.19,-1266.99 -118.33,-7.12 -236.67,-15.55 -355,-23.98 -236.68,332.62 -611.41,713.86 -766.39,679.52 -107.03,-22.06 -143.67,-108.92 236.68,-773.54 152.14,-270.41 304.29,-539.5 459.26,-807.93 -290.21,8.43 -577.6,17.52 -864.95,25.95 -149.36,324.19 -298.68,649.03 -448,975.83 -233.85,380.63 -611.41,699.62 -757.91,667.2 -107.08,-20.71 -140.89,-108.92 236.67,-796.22 152.15,-277.52 304.3,-553.73 459.27,-828.68 -287.39,9.74 -574.78,21.41 -862.17,33.73zm4482.65 171.18c14.08,-163.4 -95.78,-269.74 -267.66,-280.75 -194.39,-11.67 -400.07,10.35 -749.47,240.56 39.46,-79.74 78.91,-159.52 121.16,-239.26 -298.65,5.82 -597.29,12.33 -893.15,19.45 -166.23,356.6 -335.89,714.93 -498.68,1074.4 -164.02,362.17 -329.67,726.22 -493.08,1091.26 281.74,-16.87 563.52,-33.08 848.09,-47.32 154.97,-370.89 312.72,-741.78 470.52,-1111.36 259.18,-491.52 707.19,-543.38 526.88,-111.54 -169.05,398.11 -338.1,797.53 -507.16,1198.91 270.49,-11.05 540.97,-21.4 814.24,-31.8 146.53,-389.68 293.03,-776.12 439.53,-1161.91 191.6,-455.83 622.67,-454.56 501.55,-159.52 -93,176.38 -185.96,352.72 -278.96,529.1 -236.67,485.01 -25.38,770.59 431.1,760.56 428.16,-9.37 994.58,-365.03 1535.55,-1170.99 -123.99,5.81 -247.97,11.66 -369.13,16.21 -152.15,234.05 -591.64,624.42 -746.61,585.49 -107.08,-24.64 -50.72,-169.21 245.1,-676.28 293.04,-496.02 50.72,-826.72 -301.47,-828.03 -191.6,-3.23 -540.96,49.94 -828.35,302.82zm3344.39 -302.16c-222.59,-23.99 -408.54,33.73 -648.04,199.05 112.73,-219.15 228.24,-438.96 340.93,-658.11 112.68,-219.15 228.24,-438.31 343.75,-658.11 -301.47,-0.66 -602.98,-1.31 -901.62,-1.31 2.82,6.46 -234.14,544.56 -526.89,1208.61 -293.24,665.15 -642.39,1457.61 -867.77,1972.46 222.59,-3.24 445.15,-5.2 667.74,-6.51 25.37,-67.42 56.36,-130.33 90.17,-202.94 112.69,120.63 304.29,186.73 521.24,200.36 771.98,43.43 1363.66,-442.19 1521.46,-1085.41 107.08,-442.23 -19.73,-910.38 -540.97,-968.09zm-216.94 1062.73c-191.6,347.56 -707.19,556.35 -955.16,278.83 90.18,-196.47 180.35,-374.78 278.96,-539.49 180.3,-307.98 388.81,-356.6 538.14,-351.41 290.21,15.56 295.82,337.17 138.06,612.07zm1451.02 -1054.96c-101.43,206.88 -202.86,414.36 -304.29,620.54 -101.43,206.18 -202.86,411.74 -304.3,617.26 -225.41,473.35 -95.74,812.43 355.01,823.49 262.01,6.42 574.78,-102.46 904.41,-367.01 5.65,249 160.74,406.87 470.52,420.18 428.36,18.42 1000.22,-305.4 1541.19,-1107.47 -118.34,-16.87 -236.67,-34.35 -355.01,-52.52 -236.67,312.52 -611.41,655.53 -766.38,607.56 -107.04,-31.76 -140.85,-119.32 236.67,-742.43 152.15,-257.43 304.3,-514.2 459.27,-772.89 -287.39,-8.43 -574.78,-14.9 -862.17,-22.06 -152.14,307.36 -301.46,612.76 -450.79,918.15 -233.84,348.18 -611.41,617.92 -757.9,572.53 -107.08,-29.19 -140.89,-115.39 236.67,-734.62 152.15,-254.85 304.29,-510.31 459.26,-766.42 -287.39,-5.2 -574.77,-10.4 -862.16,-14.29zm4107.91 1060.16c-95.78,-362.46 439.53,-809.2 642.39,-925.28 -135.24,-149.77 -267.65,-298.89 -400.07,-448.05 -166.23,99.87 -304.29,241.87 -408.55,394.22 -70.44,-21.37 -152.14,-34.34 -253.58,-37.58 -338.1,-7.16 -712.71,102.05 -1011.48,306.06 -298.48,203.8 -529.67,499.25 -586.03,867.56 -90.18,594.59 349.36,947.96 929.78,1002.4 757.91,79.12 1380.58,-351.41 1825.76,-1058.84 -109.91,-31.11 -219.77,-60.95 -329.67,-90.14 -371.92,544.69 -1019.92,576.46 -1191.8,542.07 -777.63,-141.99 -222.59,-1093.84 402.9,-1043.24 -39.46,177.64 -33.81,342.97 16.91,477.84 121.16,4.55 242.28,9.09 363.44,12.98zm662.12 1301.98c84.53,-223.7 160.62,-415.63 231.03,-574.49 16.9,-42.12 36.63,-79.73 56.36,-115.39 50.72,343.02 324.27,748.29 743.83,794.95 693.31,77.12 1203.09,-581.65 1535.54,-1101 -121.16,-12.32 -242.32,-23.33 -363.48,-34.38 -183.13,242.52 -476.13,544.69 -808.62,577.11 -177.49,18.13 -293,-151.74 -298.65,-226.98 380.39,-114.73 808.63,-422.75 895.98,-839.65 70.44,-340.43 -112.65,-646.03 -507.16,-668.51 -185.87,-10.56 -478.99,87.52 -695.93,276.22 115.51,-240.56 231.35,-482.35 346.57,-726.23 115.76,-244.98 231.03,-491.48 349.36,-739.81 -295.82,-7.13 -591.68,-14.29 -884.71,-21.41 2.82,5.2 -240.56,583 -532.5,1287.74 -288.45,696.42 -628.31,1517.9 -811.44,2046.34 247.93,20.75 495.9,42.16 743.82,65.49zm1152.38 -1249.47c-160.62,214.61 -571.95,376.75 -814.27,450.67 253.57,-507.73 470.52,-743.09 679.03,-757.99 149.32,-14.28 267.65,128.37 135.24,307.32zm1343.94 -282.68c-30.99,130.95 -5.65,256.12 56.36,370.24 -408.55,65.49 -679.03,263.24 -718.49,658.11 -50.71,488.25 484.93,785.21 924.18,846.82 758.15,106.3 1405.91,-423.41 1794.73,-1154.79 -126.77,-15.56 -253.58,-30.5 -377.53,-45.4 -431.1,586.81 -910.09,677.56 -1183.36,634.13 -126.8,-20.75 -293.03,-113.47 -293.03,-279.45 0,-206.22 318.37,-239.29 631.14,-74.58 92.96,-176.99 185.95,-354.68 278.91,-533.63 -143.67,-25.96 -278.91,-50.6 -411.33,-62.88 -109.9,-36.35 -191.6,-111.54 -171.88,-198.44 42.25,-210.72 487.43,-114.77 769.17,114.78 138.06,-184.81 278.95,-370.89 419.8,-558.28 -833.96,-389.03 -1603.16,-217.23 -1718.67,283.37zm1924.36 28.53c-129.59,318.34 -256.4,634.79 -383.17,948.62 -262.05,646.44 -95.82,1003.05 298.64,1108.12 433.89,122.51 1031.22,-245.76 1572.18,-1180.78 -112.69,-33.69 -225.41,-67.42 -338.1,-101.8 -233.85,329.43 -628.32,741.17 -783.29,668.51 -107.04,-48.63 -107.04,-175.07 211.34,-874.69 73.23,-162.74 146.5,-325.49 222.59,-488.24 115.51,12.32 231.02,24.64 349.36,36.96 56.36,-144.61 112.69,-290.5 171.87,-437.69 -109.9,-10.36 -219.76,-20.1 -329.67,-29.8 200.04,-447.39 400.12,-901.95 602.98,-1362.32 -301.51,-12.32 -602.98,-25.29 -901.62,-36.96 -174.7,448.05 -349.36,890.9 -521.24,1328.59 -90.17,-7.78 -180.3,-14.9 -270.48,-22.68 -50.71,140.69 -101.43,280.76 -152.14,420.14 81.7,7.81 166.22,16.21 250.75,24.02z"/>
  </g>
  <g>
   <path class="fil0 str4" d="M12270.92 7809.31c160.86,-2.99 314.67,7.94 457.14,36.96 231.06,47.12 431.15,140.65 583.96,295.99l220.89 -133.02c-155.88,-128.59 -342.06,-194.23 -543.16,-220.89 -223.76,-29.66 -470.65,-12.95 -718.83,20.96zm373.1 448.96c-220.6,-44.97 -490.43,-33.45 -777.55,9.37 -337.33,49.9 -606.74,103.1 -815.61,151.24 -201.99,46.49 -347.41,88.09 -443.3,117.36l-17.81 5.61c-112.38,30 -227.89,-36.74 -257.89,-149.13l-70.54 -264.64c-29.57,-112.39 37.55,-227.51 149.94,-257.09 43.16,-11.47 117.32,-38.47 213.76,-73.57l172.59 -62.27c16.03,-59.4 34.17,-118.97 54.08,-178.66l33.67 -96.06c-90.66,-42.02 -173.01,-92.18 -245.28,-149.64 -128.75,-102.43 -227.39,-228.24 -287.29,-373.4l-2.66 -6.04c-29.57,-70.87 -51.89,-144.49 -67.12,-219.58 -54.93,-270.25 -8.19,-536.33 112.05,-759.58 120.57,-223.76 315.31,-405.21 555.86,-505.66 58.89,-24.6 121.62,-44.55 187.52,-58.98 89.06,-26.24 188.2,9.03 239.16,91.93l333.15 541.39c179.85,-222.08 376.86,-426.68 584.72,-600.75 394.62,-330.49 832.31,-555.56 1274.73,-592.44 135.76,-11.39 254.26,-0.21 355.35,29.58l11.13 3.12c125.09,38.9 222.58,106.73 292.95,196.8 70.37,90.07 109.9,197.61 119.9,316.41 8.77,104.2 -5.82,218.11 -42.57,336.4 -42.27,137.74 -116.14,285.02 -213.59,433.98 86.44,-29.99 178.45,-45.9 275.1,-43.33 64.97,1.73 123.86,12.24 178.33,32.4 38.47,-41.21 93.31,-66.99 154.15,-66.99l521.48 0 0 0.46c30.71,0 61.93,6.71 91.46,20.97 24.55,11.86 45.73,27.85 63.15,46.7 38.56,-41.89 93.83,-68.13 155.21,-68.13l542.95 0c29.53,0.38 59.57,6.58 88.17,19.79 10.04,4.64 19.53,9.95 28.44,15.86l14.76 -4.39c102.39,-29.28 185.92,-30.5 265.49,-24.26l-0.05 0.59 2.49 0.22c64.72,5.99 125.05,23.37 178.54,51.55 82.22,43.32 147.87,109.85 189.5,197.18 13.8,28.9 24.81,60.03 32.62,93.15l88.25 -203.68c27.38,-84.67 106.9,-146.01 200.73,-146.01l351.97 0c-3.17,-40.67 5.48,-82.64 27.29,-120.66l253.84 -439.84c33.25,-72.9 106.74,-123.52 192.04,-123.52l349.69 0c50.96,0.42 102.09,18.77 142.55,56.02 85.52,78.72 91.08,211.95 12.36,297.46l-303.91 330.54 333.06 0 0 0.76c33.42,0 67.33,7.93 98.89,24.76 50.58,26.96 85.64,71.72 101.59,122.43l63.62 -113.61c55.64,-99.1 180.6,-136.52 281.77,-83.23l368.08 193.26c99.86,52.56 140.91,175.28 91.46,277.67 -4.01,8.27 24.22,58.26 57.63,117.37l0 0.84c82.9,146.73 179.59,317.88 145.38,581.34 -28.31,214.57 -134.07,395.97 -285.4,525.07 -153.6,131.07 -354.67,207.94 -568.64,209.96 -192.55,2.07 -390.57,-60.28 -541.94,-174.19l-14.47 -11.18c-166.18,110.11 -328.6,161.66 -475.87,161.66 -151.92,0 -272.41,-48.09 -360.03,-135.04l-14.39 -14.98c-33.11,20.38 -65.94,38.44 -98.46,54.21 -126.44,61.43 -248.48,89.7 -361.5,89.7 -80.84,0 -153.99,-14.56 -218.75,-42.07 -58.64,-24.89 -108.29,-59.48 -148.87,-102.68 -159.43,99.86 -314.72,144.75 -457.53,144.75 -85.3,0 -164.19,-14.43 -234.47,-42.23l-20.42 -7.77c-78.81,-34.89 -143.4,-87.28 -191.24,-155.71 -4.89,-6.16 -9.45,-12.66 -13.71,-19.49l-14.68 -25.27 -39.15 109.69c-27.13,85.17 -106.86,146.89 -201.02,146.89l-539.87 0 0 -0.46c-27.51,0.04 -55.48,-5.4 -82.39,-16.83 -12.79,-5.45 -24.73,-12.03 -35.82,-19.54 -72.77,22.83 -144.07,33.75 -213.09,33.75 -127.32,0 -239.92,-48.13 -323.45,-123.48 -16.49,10.29 -33.37,20.21 -50.62,29.53 -69.19,37.42 -146.52,67.88 -227.31,84l27.59 35.9c6.54,7.93 12.57,16.45 18.06,25.52 60.03,99.65 27.97,229.16 -71.68,289.2l-601.25 361.96c-98.47,59.28 -226.63,28.69 -287.55,-69.18 -91.84,-147.87 -246.84,-231.74 -439.51,-271.06zm400.15 -886.82c95.21,12.62 188.15,31.77 278.1,58.85 -5.99,-34.89 -9.66,-71.08 -10.89,-108.33 -4.09,-122.14 17.68,-257.51 65.18,-396.06 -202.67,167.4 -421.36,315.35 -638.42,426.35 103.19,0.08 205.5,5.9 306.03,19.19zm-1498.07 520.42c-53.88,-28.98 -94.71,-81.12 -107.12,-145.88 -7.76,-40.5 -3.29,-80.53 10.72,-116.27 17.08,-50.75 35.82,-102.55 55.77,-153.26 19.03,-48.31 41.89,-102.1 68.81,-161.03 33.45,-73.2 103.65,-118 178.79,-122.51 93.57,-6.04 188.28,-18.19 282.86,-37.34 50.12,-10.17 101,-22.49 152.55,-37.04 -55.64,12.44 -107.36,22.11 -155.54,29.49 -115.09,17.25 -222.5,-62.06 -239.75,-177.15 -8.02,-53.49 4.81,-105.34 32.44,-147.23 44.93,-78.51 91.67,-155.25 139.01,-227.85 48.64,-74.68 98,-144.87 146.64,-208.07 283.33,-367.87 560.25,-645.55 802.57,-841.43 89.19,-72.1 174.57,-133.69 254.73,-185.16 -205.28,87.33 -408.63,219.29 -602.86,381.97 -394.28,330.24 -745.95,781.26 -1003.04,1245.66 -52.61,95.39 -168.58,133.69 -266.59,91.42l-0.37 0.89c-99.27,-42.87 -183.73,-102.73 -246.84,-179.85l-0.38 0.34c-65.27,-79.86 -105.09,-175.04 -112.77,-285.4l-0.08 -1.81c-15.87,-157.95 45.18,-312.52 166.05,-431.62 41.68,-41.05 90.82,-77.88 146.51,-108.88l-144.45 -234.78c-145.54,63.16 -263.79,174.91 -337.88,312.48 -75.76,140.7 -105.34,308.14 -70.87,477.78 9.11,44.84 23.71,91.84 44,140.52l3.17 8.14c31.93,76.57 86.9,145.17 159.89,203.22 84.41,67.12 191.06,119.9 313.66,155.25 111.46,31.81 176,148.08 144.19,259.54 -2.19,7.63 -4.72,15.01 -7.67,22.19 -38.56,94.16 -73.03,184.9 -101.72,270.96l-0.25 0.72c-28.98,87.71 -53.2,172 -71.09,252.03l-5.31 19.49c112.17,-23.03 236.12,-46.49 372.22,-69.53zm1631.42 -2017.6c-201.32,162.71 -430.56,389.89 -668.88,688.33 165.71,-81.17 322.27,-185.92 463.01,-300.42 214.35,-174.4 390.48,-370.03 506.46,-539.83 22.15,-32.4 41.93,-62.23 59.1,-88.97 -100.19,50.16 -221.99,129.55 -359.69,240.89zm1665.64 613.65l-20.54 51.39c-17.47,43.62 -47.97,78.17 -85.18,100.99 1.77,14.43 2.66,29.32 2.66,44.68 0,70.66 -22.87,164.95 -59.4,259.37 29.11,-64.72 92.56,-202.63 157.95,-343.74l52.27 -112.69 -47.76 0zm-369.39 798.95c46.62,40.41 71.59,97.62 72.44,155.84 0.88,5.61 4.85,11.89 10.92,17.42 9.32,8.44 24.01,13.88 42.61,13.88 28.31,0 58.51,-4.68 90.45,-14.56 -32.86,-26.28 -57.29,-60.32 -73.79,-101.54 -15.56,-38.85 -21.89,-81.59 -19.7,-127.28l0.43 -6.2c4.05,-60.71 24.25,-134.49 56.78,-216.38l-14.3 30.46c-44.26,90.87 -102.43,181.19 -165.84,248.36zm1103.03 -577.63c14.34,4.77 28.39,11.14 41.93,19.24l2.7 1.64c60.54,-87.33 128.21,-152.42 193.6,-196.47 -7.68,-14.76 -13.54,-30.08 -17.47,-45.73l-126.43 0 -94.33 221.32zm660.19 -171.83c13.12,13.25 25.02,28.1 35.65,44.51 50.37,77.54 62.77,180.9 17.88,299.91l-6.62 15.65 -166.3 350.87c-28.23,63.91 -41.43,116.56 -41.43,157.7 0,18.6 2.53,31.68 7.17,39.1l1.9 3.13c3.21,2.91 8.35,5.94 15.23,8.98l9.24 4.35c18.65,6.16 44.17,9.36 75.89,9.36 27.38,0 56.53,-4.09 87.42,-12.57 -85.94,-60.58 -105.01,-160.56 -49.91,-327.88 26.62,-80.83 84.67,-200.81 181.19,-384.07 39.32,-74.55 59.19,-135.93 63.62,-184.32 2.41,-26.16 0,-45.56 -6.07,-58.3 -1.44,-3.04 -3.17,-5.11 -4.9,-5.99 -4.76,-2.49 -10.8,-4.22 -17.84,-5.11l-0.04 0.51c-36.96,-2.91 -74.72,-2.62 -117.16,9.49 -25.23,7.22 -53.2,18.31 -84.92,34.68zm796.54 855.52c-21.48,25.94 -42.87,50.75 -64.25,74.41 10.71,2.37 24.51,3.63 41.47,3.63 26.49,0 54.97,-3.75 85.09,-11.6 -25.82,-17.25 -47.08,-38.81 -62.31,-66.44zm164.27 -665.42l9.88 4.97 130.69 -244.56 -36.74 0 -103.83 239.59zm513.47 541.38l1.85 1.95c39.45,41.93 58.35,95.76 57.08,149.09 1.06,23.45 4.98,39.19 11.56,45.73 7.43,7.34 28.22,11.43 63.37,11.43 27.76,0 57.79,-4.77 89.85,-14.56 -77.03,-49.02 -116.31,-133.14 -79.6,-301 8.6,-39.57 25.14,-89.48 52.14,-153.44l-0.93 1.65c-55.94,95.3 -124.79,184.36 -195.32,259.15zm945.62 166.69l-11.51 13.08c68.59,35.73 149.09,54.67 228.74,53.83 112.81,-1.06 218.36,-41.18 298.39,-109.48 75.43,-64.34 128.12,-154.19 142.04,-259.79 16.2,-124.92 -42.99,-230.13 -93.95,-320.33l-0.38 0.21c-58.34,-103.19 -110.95,-196.29 -116.9,-302.48l-48.81 -25.61 -29.03 51.89c28.31,18.65 50.84,43.24 66.79,71.22 32.69,52.05 66.06,109.18 93.44,164.02 28.56,57.16 50.37,111.63 59.4,156.89l1.98 11.69c5.28,31.89 7.89,63.28 7.89,93.57 0,99.48 -27.12,193.64 -78.34,269.58 -58.89,87.2 -146.26,148.62 -258.44,168.41 -23.83,4.18 -48.34,6.45 -73.11,6.45 -65.01,0 -128.96,-14.68 -188.2,-43.15zm-705.75 -524.1c28.48,-59.82 63.87,-129.17 107.33,-209.62l114.28 -213.94 -36.83 0 -184.78 423.56z"/>
   <path id="1" class="fil2" d="M12270.92 7809.31c160.86,-2.99 314.67,7.94 457.14,36.96 231.06,47.12 431.15,140.65 583.96,295.99l220.89 -133.02c-155.88,-128.59 -342.06,-194.23 -543.16,-220.89 -223.76,-29.66 -470.65,-12.95 -718.83,20.96zm373.1 448.96c-220.6,-44.97 -490.43,-33.45 -777.55,9.37 -337.33,49.9 -606.74,103.1 -815.61,151.24 -201.99,46.49 -347.41,88.09 -443.3,117.36l-17.81 5.61c-112.38,30 -227.89,-36.74 -257.89,-149.13l-70.54 -264.64c-29.57,-112.39 37.55,-227.51 149.94,-257.09 43.16,-11.47 117.32,-38.47 213.76,-73.57l172.59 -62.27c16.03,-59.4 34.17,-118.97 54.08,-178.66l33.67 -96.06c-90.66,-42.02 -173.01,-92.18 -245.28,-149.64 -128.75,-102.43 -227.39,-228.24 -287.29,-373.4l-2.66 -6.04c-29.57,-70.87 -51.89,-144.49 -67.12,-219.58 -54.93,-270.25 -8.19,-536.33 112.05,-759.58 120.57,-223.76 315.31,-405.21 555.86,-505.66 58.89,-24.6 121.62,-44.55 187.52,-58.98 89.06,-26.24 188.2,9.03 239.16,91.93l333.15 541.39c179.85,-222.08 376.86,-426.68 584.72,-600.75 394.62,-330.49 832.31,-555.56 1274.73,-592.44 135.76,-11.39 254.26,-0.21 355.35,29.58l11.13 3.12c125.09,38.9 222.58,106.73 292.95,196.8 70.37,90.07 109.9,197.61 119.9,316.41 8.77,104.2 -5.82,218.11 -42.57,336.4 -42.27,137.74 -116.14,285.02 -213.59,433.98 86.44,-29.99 178.45,-45.9 275.1,-43.33 64.97,1.73 123.86,12.24 178.33,32.4 38.47,-41.21 93.31,-66.99 154.15,-66.99l521.48 0 0 0.46c30.71,0 61.93,6.71 91.46,20.97 24.55,11.86 45.73,27.85 63.15,46.7 38.56,-41.89 93.83,-68.13 155.21,-68.13l542.95 0c29.53,0.38 59.57,6.58 88.17,19.79 10.04,4.64 19.53,9.95 28.44,15.86l14.76 -4.39c102.39,-29.28 185.92,-30.5 265.49,-24.26l-0.05 0.59 2.49 0.22c64.72,5.99 125.05,23.37 178.54,51.55 82.22,43.32 147.87,109.85 189.5,197.18 13.8,28.9 24.81,60.03 32.62,93.15l88.25 -203.68c27.38,-84.67 106.9,-146.01 200.73,-146.01l351.97 0c-3.17,-40.67 5.48,-82.64 27.29,-120.66l253.84 -439.84c33.25,-72.9 106.74,-123.52 192.04,-123.52l349.69 0c50.96,0.42 102.09,18.77 142.55,56.02 85.52,78.72 91.08,211.95 12.36,297.46l-303.91 330.54 333.06 0 0 0.76c33.42,0 67.33,7.93 98.89,24.76 50.58,26.96 85.64,71.72 101.59,122.43l63.62 -113.61c55.64,-99.1 180.6,-136.52 281.77,-83.23l368.08 193.26c99.86,52.56 140.91,175.28 91.46,277.67 -4.01,8.27 24.22,58.26 57.63,117.37l0 0.84c82.9,146.73 179.59,317.88 145.38,581.34 -28.31,214.57 -134.07,395.97 -285.4,525.07 -153.6,131.07 -354.67,207.94 -568.64,209.96 -192.55,2.07 -390.57,-60.28 -541.94,-174.19l-14.47 -11.18c-166.18,110.11 -328.6,161.66 -475.87,161.66 -151.92,0 -272.41,-48.09 -360.03,-135.04l-14.39 -14.98c-33.11,20.38 -65.94,38.44 -98.46,54.21 -126.44,61.43 -248.48,89.7 -361.5,89.7 -80.84,0 -153.99,-14.56 -218.75,-42.07 -58.64,-24.89 -108.29,-59.48 -148.87,-102.68 -159.43,99.86 -314.72,144.75 -457.53,144.75 -85.3,0 -164.19,-14.43 -234.47,-42.23l-20.42 -7.77c-78.81,-34.89 -143.4,-87.28 -191.24,-155.71 -4.89,-6.16 -9.45,-12.66 -13.71,-19.49l-14.68 -25.27 -39.15 109.69c-27.13,85.17 -106.86,146.89 -201.02,146.89l-539.87 0 0 -0.46c-27.51,0.04 -55.48,-5.4 -82.39,-16.83 -12.79,-5.45 -24.73,-12.03 -35.82,-19.54 -72.77,22.83 -144.07,33.75 -213.09,33.75 -127.32,0 -239.92,-48.13 -323.45,-123.48 -16.49,10.29 -33.37,20.21 -50.62,29.53 -69.19,37.42 -146.52,67.88 -227.31,84l27.59 35.9c6.54,7.93 12.57,16.45 18.06,25.52 60.03,99.65 27.97,229.16 -71.68,289.2l-601.25 361.96c-98.47,59.28 -226.63,28.69 -287.55,-69.18 -91.84,-147.87 -246.84,-231.74 -439.51,-271.06zm400.15 -886.82c95.21,12.62 188.15,31.77 278.1,58.85 -5.99,-34.89 -9.66,-71.08 -10.89,-108.33 -4.09,-122.14 17.68,-257.51 65.18,-396.06 -202.67,167.4 -421.36,315.35 -638.42,426.35 103.19,0.08 205.5,5.9 306.03,19.19zm-1498.07 520.42c-53.88,-28.98 -94.71,-81.12 -107.12,-145.88 -7.76,-40.5 -3.29,-80.53 10.72,-116.27 17.08,-50.75 35.82,-102.55 55.77,-153.26 19.03,-48.31 41.89,-102.1 68.81,-161.03 33.45,-73.2 103.65,-118 178.79,-122.51 93.57,-6.04 188.28,-18.19 282.86,-37.34 50.12,-10.17 101,-22.49 152.55,-37.04 -55.64,12.44 -107.36,22.11 -155.54,29.49 -115.09,17.25 -222.5,-62.06 -239.75,-177.15 -8.02,-53.49 4.81,-105.34 32.44,-147.23 44.93,-78.51 91.67,-155.25 139.01,-227.85 48.64,-74.68 98,-144.87 146.64,-208.07 283.33,-367.87 560.25,-645.55 802.57,-841.43 89.19,-72.1 174.57,-133.69 254.73,-185.16 -205.28,87.33 -408.63,219.29 -602.86,381.97 -394.28,330.24 -745.95,781.26 -1003.04,1245.66 -52.61,95.39 -168.58,133.69 -266.59,91.42l-0.37 0.89c-99.27,-42.87 -183.73,-102.73 -246.84,-179.85l-0.38 0.34c-65.27,-79.86 -105.09,-175.04 -112.77,-285.4l-0.08 -1.81c-15.87,-157.95 45.18,-312.52 166.05,-431.62 41.68,-41.05 90.82,-77.88 146.51,-108.88l-144.45 -234.78c-145.54,63.16 -263.79,174.91 -337.88,312.48 -75.76,140.7 -105.34,308.14 -70.87,477.78 9.11,44.84 23.71,91.84 44,140.52l3.17 8.14c31.93,76.57 86.9,145.17 159.89,203.22 84.41,67.12 191.06,119.9 313.66,155.25 111.46,31.81 176,148.08 144.19,259.54 -2.19,7.63 -4.72,15.01 -7.67,22.19 -38.56,94.16 -73.03,184.9 -101.72,270.96l-0.25 0.72c-28.98,87.71 -53.2,172 -71.09,252.03l-5.31 19.49c112.17,-23.03 236.12,-46.49 372.22,-69.53zm1631.42 -2017.6c-201.32,162.71 -430.56,389.89 -668.88,688.33 165.71,-81.17 322.27,-185.92 463.01,-300.42 214.35,-174.4 390.48,-370.03 506.46,-539.83 22.15,-32.4 41.93,-62.23 59.1,-88.97 -100.19,50.16 -221.99,129.55 -359.69,240.89zm1665.64 613.65l-20.54 51.39c-17.47,43.62 -47.97,78.17 -85.18,100.99 1.77,14.43 2.66,29.32 2.66,44.68 0,70.66 -22.87,164.95 -59.4,259.37 29.11,-64.72 92.56,-202.63 157.95,-343.74l52.27 -112.69 -47.76 0zm-369.39 798.95c46.62,40.41 71.59,97.62 72.44,155.84 0.88,5.61 4.85,11.89 10.92,17.42 9.32,8.44 24.01,13.88 42.61,13.88 28.31,0 58.51,-4.68 90.45,-14.56 -32.86,-26.28 -57.29,-60.32 -73.79,-101.54 -15.56,-38.85 -21.89,-81.59 -19.7,-127.28l0.43 -6.2c4.05,-60.71 24.25,-134.49 56.78,-216.38l-14.3 30.46c-44.26,90.87 -102.43,181.19 -165.84,248.36zm1103.03 -577.63c14.34,4.77 28.39,11.14 41.93,19.24l2.7 1.64c60.54,-87.33 128.21,-152.42 193.6,-196.47 -7.68,-14.76 -13.54,-30.08 -17.47,-45.73l-126.43 0 -94.33 221.32zm660.19 -171.83c13.12,13.25 25.02,28.1 35.65,44.51 50.37,77.54 62.77,180.9 17.88,299.91l-6.62 15.65 -166.3 350.87c-28.23,63.91 -41.43,116.56 -41.43,157.7 0,18.6 2.53,31.68 7.17,39.1l1.9 3.13c3.21,2.91 8.35,5.94 15.23,8.98l9.24 4.35c18.65,6.16 44.17,9.36 75.89,9.36 27.38,0 56.53,-4.09 87.42,-12.57 -85.94,-60.58 -105.01,-160.56 -49.91,-327.88 26.62,-80.83 84.67,-200.81 181.19,-384.07 39.32,-74.55 59.19,-135.93 63.62,-184.32 2.41,-26.16 0,-45.56 -6.07,-58.3 -1.44,-3.04 -3.17,-5.11 -4.9,-5.99 -4.76,-2.49 -10.8,-4.22 -17.84,-5.11l-0.04 0.51c-36.96,-2.91 -74.72,-2.62 -117.16,9.49 -25.23,7.22 -53.2,18.31 -84.92,34.68zm796.54 855.52c-21.48,25.94 -42.87,50.75 -64.25,74.41 10.71,2.37 24.51,3.63 41.47,3.63 26.49,0 54.97,-3.75 85.09,-11.6 -25.82,-17.25 -47.08,-38.81 -62.31,-66.44zm164.27 -665.42l9.88 4.97 130.69 -244.56 -36.74 0 -103.83 239.59zm513.47 541.38l1.85 1.95c39.45,41.93 58.35,95.76 57.08,149.09 1.06,23.45 4.98,39.19 11.56,45.73 7.43,7.34 28.22,11.43 63.37,11.43 27.76,0 57.79,-4.77 89.85,-14.56 -77.03,-49.02 -116.31,-133.14 -79.6,-301 8.6,-39.57 25.14,-89.48 52.14,-153.44l-0.93 1.65c-55.94,95.3 -124.79,184.36 -195.32,259.15zm945.62 166.69l-11.51 13.08c68.59,35.73 149.09,54.67 228.74,53.83 112.81,-1.06 218.36,-41.18 298.39,-109.48 75.43,-64.34 128.12,-154.19 142.04,-259.79 16.2,-124.92 -42.99,-230.13 -93.95,-320.33l-0.38 0.21c-58.34,-103.19 -110.95,-196.29 -116.9,-302.48l-48.81 -25.61 -29.03 51.89c28.31,18.65 50.84,43.24 66.79,71.22 32.69,52.05 66.06,109.18 93.44,164.02 28.56,57.16 50.37,111.63 59.4,156.89l1.98 11.69c5.28,31.89 7.89,63.28 7.89,93.57 0,99.48 -27.12,193.64 -78.34,269.58 -58.89,87.2 -146.26,148.62 -258.44,168.41 -23.83,4.18 -48.34,6.45 -73.11,6.45 -65.01,0 -128.96,-14.68 -188.2,-43.15zm-705.75 -524.1c28.48,-59.82 63.87,-129.17 107.33,-209.62l114.28 -213.94 -36.83 0 -184.78 423.56z"/>
  </g>
  <path class="fil1" d="M11835.97 8059.19c616.56,-92.01 1174.83,-46.03 1426.35,358.89l601.25 -361.97c-438.66,-598.13 -1190.19,-533.71 -1886.49,-414.11l-331.29 64.42c30.67,-92.01 70.57,-196.3 119.64,-303.66 199.38,-12.28 407.95,-52.15 619.6,-125.77 708.58,-251.52 1542.96,-1049.07 1720.87,-1628.8 113.48,-365.05 -42.95,-650.32 -518.4,-610.41 -846.62,70.53 -1702.43,935.54 -2208.55,1849.66 -135,-58.31 -223.93,-153.4 -233.13,-285.27 -24.55,-187.15 144.16,-377.33 420.23,-414.11l-368.08 -598.18c-542.95,110.45 -886.53,702.46 -653.4,1260.73 92.05,230.05 315.98,401.83 613.49,487.73 -79.74,193.26 -144.16,380.36 -184.02,558.26 -242.33,82.81 -417.19,153.39 -509.2,177.9l70.53 263.84c199.38,-61.38 616.57,-177.94 1300.6,-279.15zm527.59 -1208.58c-119.6,42.94 -242.32,70.53 -361.92,88.97 88.93,-156.43 184.02,-303.71 276.07,-423.31 730.05,-947.86 1404.88,-1263.8 1521.44,-1119.61 147.24,180.99 -558.26,1153.36 -1435.59,1453.95zm2337.39 -573.62l-73.62 184.06c-67.46,-101.21 -147.23,-147.23 -263.8,-150.31 -346.61,-9.2 -628.8,315.94 -754.6,598.17 -177.9,414.11 -85.85,791.39 279.15,779.12 184.07,-6.12 377.28,-147.24 447.86,-242.33 3.04,125.76 113.49,239.25 263.8,239.25 260.72,0 582.82,-226.97 911.04,-776.04l-205.54 -30.67c-141.12,198.32 -352.77,432.5 -457.06,426.35 -64.42,-3.04 -49.06,-101.72 12.28,-246.42 27.59,-64.93 309.82,-673.82 361.97,-781.18l-521.48 0zm-407.95 892.64c-119.65,98.17 -239.29,82.81 -245.41,-36.83 -9.19,-150.27 122.68,-395.68 245.41,-490.77 113.48,-95.09 236.16,-76.69 236.16,42.95 0,122.68 -119.6,386.48 -236.16,484.65zm1782.2 -892.64l-542.95 0 -601.21 1411.04 539.87 0 260.72 -730.06c165.67,-346.61 441.7,-361.96 361.96,-150.31l-168.7 355.85c-144.16,325.14 -15.36,518.4 260.71,518.4 260.76,0 595.1,-214.73 923.32,-763.8l-217.78 0c-141.11,196.29 -355.85,414.11 -450.94,386.48 -64.42,-18.4 -30.67,-116.57 150.32,-460.1 177.9,-337.41 64.42,-542.95 -134.96,-561.34 -116.56,-9.2 -242.32,3.08 -453.98,153.35l73.62 -159.51zm1088.94 0l-368.09 849.69c-138.03,325.14 -58.3,555.23 214.7,555.23 159.51,0 349.69,-79.78 549.11,-266.88 3.03,168.71 98.12,273 285.27,273 260.71,0 607.32,-236.21 935.54,-785.28l-214.73 -24.51c-144.16,214.69 -371.12,453.98 -466.21,426.35 -64.42,-18.4 -85.9,-76.7 144.15,-503.05l279.15 -524.55 -524.55 0 -273 625.76c-141.11,239.29 -371.16,429.47 -460.13,401.84 -64.38,-18.4 -85.86,-76.7 144.19,-503.05l279.11 -524.55 -524.51 0zm754.6 -226.97l420.23 -457.06 -349.69 0 -263.8 457.06 193.26 0zm349.65 1205.5c30.67,285.27 325.14,460.1 607.37,457.06 322.06,-3.08 604.29,-227.01 647.24,-552.15 49.06,-377.28 -291.43,-542.95 -184.06,-763.8l-368.09 -193.26 -171.78 306.74c-61.34,101.25 -128.84,214.74 -196.3,315.94 -101.25,156.48 -205.54,303.71 -273.04,380.41l-61.34 49.06zm515.32 -337.41c30.71,-49.11 85.89,-131.92 125.8,-205.54 58.26,92.05 116.57,196.34 128.8,257.68 27.63,156.43 -45.98,297.55 -193.22,297.55 -82.85,0 -162.59,-46.03 -211.65,-131.92 52.14,-67.46 101.21,-138.04 150.27,-217.77z"/>
 </g>
</svg>
